<svg id="Слой_1" data-name="Слой 1" xmlns="http://www.w3.org/2000/svg" viewBox="0 0 1649.03 24.85"><defs><style>.cls-1{fill:#fff;fill-rule:evenodd;}</style></defs><title>logo__line_light</title><path class="cls-1" d="M1612.53,1.94c-21-3.28-29-3.23-48,6.76H1551c-.54-4.31-2.26-7.47-4.3-7.47s-3.76,3.17-4.3,7.47H106.6c-.54-4.31-2.26-7.47-4.3-7.47S98.54,4.39,98,8.7H84.48c-18.94-10-27-10-48-6.76L0,11.62c12.22,3.47,23.35,7.32,35.57,10.8,19.8,5,30.83,2.29,48.06-7.94L98,14.74,98,14.38h0c.54,4.3,2.26,7.47,4.3,7.47s3.76-3.17,4.3-7.47H1542.43c.54,4.3,2.26,7.47,4.3,7.47s3.76-3.17,4.3-7.47h0l-.05.36,14.41-.26c17.23,10.23,28.26,12.94,48.06,7.94,12.22-3.47,23.35-7.32,35.57-10.8Z"/></svg>