<?xml version="1.0" encoding="utf-8"?>
<!-- Generator: Adobe Illustrator 21.0.0, SVG Export Plug-In . SVG Version: 6.00 Build 0)  -->
<svg version="1.1" id="Слой_1" xmlns="http://www.w3.org/2000/svg" xmlns:xlink="http://www.w3.org/1999/xlink" x="0px" y="0px"
	 viewBox="0 0 383.5 491.8" style="enable-background:new 0 0 383.5 491.8;" xml:space="preserve">
<style type="text/css">
	.st0{fill:#FFFFFF;}
</style>
<g>
	<path class="st0" d="M351.9,108.1c10.8,0,21.1,0,31.6,0c0,127.8,0,255.4,0,383.5c-1.8,0.1-3.6,0.2-5.4,0.2
		c-113.8,0-227.7,0-341.5,0c-14.5,0-30-10.3-35.3-23.8c-1.2-3-1.3-6.4-1.3-9.7C0,332.7,0,207,0,81.3c0-1,0-2,0-3.5
		C106.4,51.9,212.7,26,319.4,0c0,128,0,255.7,0,383.6c-18.6,4.7-37.3,9.3-56.1,14C188,416.4,112.6,435.2,37.2,454
		c-2.7,0.7-5.9,1-5,5.5c106.3,0,212.7,0,319.7,0C351.9,342.5,351.9,225.4,351.9,108.1z M110,344.7c1.1-0.1,2.2-0.1,3.2-0.2
		c46.6-12.6,93.2-25.3,139.6-37.8c0.8-23-13.8-42.3-36.7-49c-17.7-5.1-35.4-3.6-52.6,2c-34.9,11.3-61.7,32.2-77.1,66.2
		c-3.8,8.4-5.9,17.2-5.8,26.9c1.9-0.4,3.4-0.6,4.8-1c1.4-0.4,2.8-0.9,3.4-1.1c8.7-30.8,24.8-55.3,52.1-71.6
		c-21.1,18.3-35.6,40.5-41.4,69.2C103.8,346.8,106.9,345.7,110,344.7z M303.8,363.6c-94.8,24-189.1,47.9-283.6,71.9
		c0-113.5,0-226.4,0-339.6c72.2-18.1,144.3-36.2,216.4-54.3c-0.9-0.7-1.8-0.7-2.5-0.6c-71,17-142,34-213,50.8c-4.2,1-5.4,2.7-5.4,7
		c0.1,112.5,0.1,225,0.1,337.4c0,1.8,0,3.5,0,5.8c97.8-24.5,194.9-48.7,291.9-73c0-115.3,0-230.2,0-345.1c-5.2-0.2-3.9,3.4-3.9,5.9
		c0,89.5,0,179,0,268.4C303.8,319.8,303.8,341.5,303.8,363.6z M53.1,375.6c7.3,4.3,13.7,5.4,20.4,2.9c4.1-1.5,7.9-0.8,12,0.5
		c3.9,1.2,8.6,1.8,12.4,0.8c43.9-11.6,87.6-23.7,131.4-35.4c7.1-1.9,12.2-5.6,16.4-11.4c0.8-1.1,2.3-2,3.7-2.3
		c9.8-1.8,18.1-6.1,24.5-15.1C200.2,335.7,127.3,355.4,53.1,375.6z M75.5,155.4c-0.4,0-0.8,0.1-1.1,0.1c-3.9-11-7.7-22-11.6-33.2
		c-5.3,1.3-9.9,2.4-14.5,3.6c0,16.6,0,32.9,0,49.2c6.1-0.5,8.2-3.5,7.7-9.3c-0.5-5.6-0.1-11.3-0.1-17c0-4.6,0-9.2,0-13.9
		c0.4,0,0.8,0,1.2,0c4,11.6,8,23.1,11.9,34.3c7.4,0.2,11.5-2.6,13-9.7c1.6-7.3,4.3-14.3,6.5-21.4c1.1-3.6,2.3-7.1,3.5-10.6
		c0.2,0.1,0.3,0.1,0.5,0.2c0,12.1,0,24.2,0,36.8c2.3-0.4,4.2-0.9,6.2-1c4.8-0.3,6.2-2.6,6-7.4c-0.4-11.8-0.1-23.6-0.1-35.5
		c0-2.6,0-5.2,0-8.3c-3.7,0.8-6.5,1.8-9.4,2.1c-4.7,0.5-7.1,2.7-8.4,7.4C83.2,133.2,79.2,144.3,75.5,155.4z M168,145.3
		c2.5-0.5,4.5-1.1,6.5-1.1c4.8-0.1,6-2.5,5.7-7c-0.6-9.1-0.7-18.3-1-27.4c0-0.6,0.3-1.1,0.6-2.3c5.4,7.7,10.4,14.7,15.3,21.8
		c6.1,8.7,6.1,8.7,16.6,6.3c3.1-0.7,4.3-2,4.2-5.4c-0.2-13.3-0.1-26.6-0.1-40c0-1.7-0.2-3.4-0.4-5.4c-1.6,0.3-2.6,0.4-3.6,0.6
		c-10.2,2.2-8.3,0-8.5,10.1c-0.1,8.7,0,17.5,0,27.2c-5.1-7.1-9.6-13.5-14.2-20c-7.5-10.6-7.5-10.6-20.2-7c-0.3,0.1-0.5,0.4-0.9,0.7
		C168,112.5,168,128.6,168,145.3z M275.9,69.2c-4.4,1-8.1,1.9-12.1,2.8c0,10,0.1,19.8,0,29.6c0,2.5-0.2,5-0.9,7.4
		c-1.5,5.4-7,8.5-13,7.7c-4.1-0.5-5.8-3.5-5.9-10.1c0-3.7,0-7.3,0-11c0-5.9,0-11.9,0-18.4c-4.6,1.1-8.3,2-12.2,2.9
		c0,11.5-0.3,22.5,0.2,33.4c0.1,2.9,1.8,6.2,3.7,8.4c4.2,5,10.1,5,16.1,4c12.7-2.1,23.3-11.1,24-22
		C276.4,92.7,275.9,81.4,275.9,69.2z M151.8,100.4c-8.3,2.1-15.7,4.3-23.4,5.9c-3.6,0.8-4.8,2.2-4.8,5.9c0.2,13.5,0.1,27,0.1,40.4
		c0,1.6,0.2,3.2,0.3,5.1c7.4-1.9,14.3-3.6,21.2-5.4c7.6-2,8-2.7,5.9-10.6c-6.2,1.3-12.5,2.6-18.8,3.9c-1.3-12-1.3-12,9.5-14.5
		c1-0.2,2-0.4,2.9-0.6c7.9-1.7,8.1-1.9,6.5-10.5c-6.3,1.3-12.6,2.6-19.2,3.9c0-3.6,0-6.7,0-10.2c6.5-1.5,13.1-3.1,19.6-4.6
		C151.8,106.2,151.8,103.6,151.8,100.4z M156.6,253.8c7.8,3.1,15.5,1.6,19.9-4.2c2.3-3,4-6.5,0.6-9.8c-5.2-5-19.4-1.1-21.6,6
		c1.5-0.9,3-1.8,3.7-2.2C158.4,246.7,157.5,250.1,156.6,253.8z M160,222.3c10.3-7.8,11.6-14.9,5.2-25.1c-2.7-4.2-2.8-8.7-1.6-13.4
		c0.4-1.4,0.8-2.8,1.6-5.3c-8.3,8.3-9.9,16-5.5,24.8C162.7,209.6,164.3,215.8,160,222.3z M200.1,232c7.7-6.3,8.5-11.8,5.1-20.5
		c-1.4-3.4-0.7-7.7-0.5-11.6c0.2-2.3,1.4-4.5,2.3-7.4c-9,6.5-11.3,14-7.3,23C202.2,221.1,202.8,226.4,200.1,232z M123.4,209.2
		c-7.8,4.6-9,14.5-4.9,23.6c3.1,6.9,5.6,13.6-0.7,20.4c7.3-5,10.4-13.4,6.8-20.3C120.4,225.4,119.6,218,123.4,209.2z"/>
	<path class="st0" d="M110,344.7c-0.9-0.7-2.6-1.6-2.5-2.1c3.9-19.1,12.3-35.8,26.9-49.2c-11.1,15.4-16.8,32.9-21.2,51
		C112.1,344.5,111.1,344.6,110,344.7z"/>
</g>
</svg>
