<svg id="Слой_1" data-name="Слой 1" xmlns="http://www.w3.org/2000/svg" viewBox="0 0 496.22 463.53"><defs><style>.cls-1{fill:#fff;}</style></defs><title>coffee</title><path class="cls-1" d="M441.36,358.58c3.58-6.18,8.3-8.1,14.79-6.32,7.53,2.07,15.25,3.45,22.69,5.76a36.23,36.23,0,0,1,11,5.77c8.25,6.28,8.81,15.12.17,20.6a187.18,187.18,0,0,1-33.62,17.14c-32.21,12.19-65.89,18.59-99.92,23.32a750.76,750.76,0,0,1-120.13,6.68c-56.85-1.25-113.52-4.86-169.24-17-15.85-3.45-31.26-9-46.74-14-4.19-1.36-7.9-4.22-11.78-6.46a17.3,17.3,0,0,1,.77-30.25,152.09,152.09,0,0,1,41.59-15.11c22.72-4.89,45.59-9.05,68.71-13.58l1.94,10-19,2.67,32.91,46.74c-7.68-1.24-14.53-1.86-21.13-3.52C94,385.91,77.25,374.75,63,359.71c-2.65-2.8-5-3.67-8.67-2.62-8.3,2.39-16.81,4.14-25,6.92-3.76,1.28-7.28,4-10.21,6.76s-2.63,6.62,1.17,8.79a96.24,96.24,0,0,0,15.2,7.37c27.1,9.62,55.31,14.56,83.62,18.79A911.21,911.21,0,0,0,274,415.8c59.27-1.31,118-6.92,175.11-24,10.31-3.09,20.19-7.64,30.14-11.82,1.91-.8,3.24-3,4.83-4.55-1.66-1.56-3.05-3.86-5-4.56-10.78-3.87-21.69-7.36-32.56-10.94C445,359.38,443.34,359.08,441.36,358.58Z"/><path class="cls-1" d="M404.78,432.46c-11.69,5.41-23.27,11.09-35.1,16.18-24.67,10.62-50.55,15.16-77.37,14.88-33.47-.34-67,.46-100.41-1.07-33-1.51-63.31-13.05-91.5-30.12-.38-.23-.62-.71-1.46-1.71,102.15,19.27,203.66,16,305.16-.2Z"/><path class="cls-1" d="M362.58,375.25c4.31-8.79,8.32-17.16,12.56-25.41a8.11,8.11,0,0,1,3.65-3c3.13-1.53,6.38-2.83,9.63-4.12,20.42-8.07,36.15-22.24,50-38.76a56.13,56.13,0,0,0,13.14-33.34c1-17.14-13.43-28.85-29.87-23.73-7,2.19-13.53,6.05-20.5,9.25,1.37-9.28,2.69-18.65,4.22-28a4.15,4.15,0,0,1,2.52-2.42c11.78-4.06,23.65-4.84,35.76-1.16,11.13,3.39,18.72,10.49,23.32,21,9.5,21.64,8.82,42.5-4.39,62.67-11.69,17.86-27.28,31.55-45.76,41.57-16.63,9-34.1,16.47-51.22,24.59A20.43,20.43,0,0,1,362.58,375.25Z"/><path class="cls-1" d="M250,0c-1.54,10.24-4.24,21.13-4.58,32.09C244.85,50.29,251.94,66,264,79.69a109,109,0,0,1,13.4,17.9c7.1,12.5,4.27,22.42-7.73,30.4a53.71,53.71,0,0,1-6.91,4c-7.19,3.37-14.45,6.59-21.69,9.87l-1.27-1.39c1.28-.77,2.59-1.49,3.83-2.31,13.7-9.06,16.37-22,12.24-36.8A105.62,105.62,0,0,0,247.79,81c-7.49-14.36-13.16-29.12-12.44-45.61C236,21.45,241,9.29,250,0Z"/><path class="cls-1" d="M384.65,169.9a24.84,24.84,0,0,0-4.37-1c-14.58-1.35-29.14-3.37-43.75-3.77q-46-1.27-92-1.09c-43,.16-86,1.08-128.64,6.88-3.8.52-7.51,1.7-11.26,2.57l.1,2.24c44.83,9.74,90.49,11.39,136.18,11.87s91.4,0,137.41-4.78c-1.94,3.12-3.92,6.41-6.82,7.93a35.9,35.9,0,0,1-13.22,4.09c-21.56,1.8-43.15,4-64.76,4.38-28.12.49-56.27-.47-84.4-1.11-10.78-.24-21.53-1.32-33.19-2.08,2.67,65.44,6.74,130.29,23.13,194-3.16-1.7-6.31-3.38-8.53-5.88A107.34,107.34,0,0,1,179,369.21c-23.26-38.1-34.31-80.23-39.77-124-2-16.16-2.67-32.49-4-49l-31-8c.21,4.14.24,7.8.6,11.43,1.43,14.41,2.59,28.86,4.54,43.2,4.54,33.36,11.26,66.27,23,97.94,6.86,18.5,15.06,36.35,29.08,50.74a16.17,16.17,0,0,0,7.57,4.21c47.59,10.95,95.48,9.08,143.58,3.91,15-1.62,25.6-8.1,33.65-20.61,12.24-19,19.94-39.82,25.76-61.41,12.15-45.06,17.31-91.16,19.91-137.62C392.3,172.76,391.59,171.85,384.65,169.9Zm-161,135.32c-10.3-18.42-9.15-31.86,4.08-39.64.5,3,.66,5.73,1.47,8.29,1.22,3.84,2,8.38,4.57,11.1,5.05,5.33,7.21,11.28,8.84,18.28,1.4,6,5.57,11.32,8.57,17C242.69,324.92,231.67,319.59,223.64,305.22Zm34.85,11c-4.09,1.66-9.76-6-11.12-14.57-1.24-7.84-3.6-14.84-9.75-20.48-5-4.54-7.11-15.59-4.47-18.48,3-3.28,12.88-1.93,18.74,3,10.71,8.94,14.1,21.18,15,33.28C266.66,306.92,265.32,313.49,258.49,316.27Zm16-23.63c3.3-9.83,8.56-14,16.69-13.35l-12.74,28C272.94,303.64,272,300.1,274.45,292.65Zm22.25,9.63c-3,5.5-7,9.6-16.24,7.45l13.49-30C300.81,287.56,301.22,294,296.71,302.27Z"/></svg>