<svg id="Слой_1" data-name="Слой 1" xmlns="http://www.w3.org/2000/svg" viewBox="0 0 270.51 495.95"><defs><style>.cls-1{fill:#fff;}</style></defs><title>cold-drinks</title><path class="cls-1" d="M79.83,129.22c5.37,3.11,11.17,5.67,16,9.43,27.06,20.93,58,27.07,91.31,24.76,19.66-1.36,37.7-7.71,54.35-18.19,2.53-1.59,5.32-2.74,7.92-4.23,3.59-2,3.8-4.32.14-6.11-4.73-2.31-9.8-3.92-15.78-6.25,12.62-1.34,23.86-.18,34.28,5.31,1.53.8,2.43,4.16,2.42,6.32A459.53,459.53,0,0,1,257.1,247.56c-7,28.08-14.9,55.92-21.67,84.05-6.84,28.43-7.27,57.5-5.18,86.47,1.45,20,4.69,40,7.31,59.93.41,3.14-.44,4.93-3.08,6.5-10,5.92-21,8.16-32.31,9.59-24.66,3.14-49.17,2.48-73.42-3.43-1-.24-1.91-.56-2.87-.86-14.38-4.39-15.27-5.76-12.87-20.34a492.58,492.58,0,0,0,6.19-79.59c0-30.25-5.52-59.51-13.59-88.52-10-35.75-18.82-71.82-23.22-108.73-2.45-20.6-3.2-41.4-4.71-62.12Zm5.69,17.29c2.26,16.27,3.23,32.5,7,48.08,7.3,30.38,14.76,60.85,24.65,90.45,17.8,53.29,21.39,107.46,14.62,162.74-.45,3.67.31,6.1,3.94,7.4,1.55.56,2.93,1.57,4.44,2.27,25,11.61,49.62,10.58,73.92-2.24,2.75-1.45,3.74-3,3.18-6.26-1-6.06-1.46-12.23-2-18.37a414.55,414.55,0,0,1,.15-72.87c2.07-22,8.28-43.09,13.83-64.33,10.48-40.11,20.43-80.33,24-121.8.55-6.34.8-12.71,1.17-18.85C197.22,178.64,141.69,180,85.52,146.51Zm134.84,324a410,410,0,0,1-92.31.09C159.09,484.87,189,485.61,220.36,470.53Z"/><path class="cls-1" d="M0,85.93c-.09.36,0-.46.31-1.17,13-28.86,33.2-49.52,65.35-55.24,18.91-3.36,37.55-1.24,54.34,9.35,7.31,4.61,14.74,9.15,21.51,14.49,18.7,14.73,27.78,34.93,31,58,1.5,10.84,1.88,21.84,2.89,34.19-6-3-10.79-5.18-15.25-7.9-1-.62-1.2-3.18-1.16-4.83.35-17.12-2.08-33.78-11.35-48.42C129.76,56.19,104.47,40,70.42,39.74c-17.22-.12-32.43,6.39-44.82,18C16.2,66.54,8.2,76.82,0,85.93Z"/><path class="cls-1" d="M71.18,97.88c-.64-6.59-1.71-13.18-1.8-19.78a93.83,93.83,0,0,1,1.41-20.2C72.21,51,77,48.36,83.88,49.37c12.86,1.9,23.31,8.31,31.94,17.86,2.9,3.21,3.64,6.63.89,10.32-7.23,9.7-14,19.81-21.92,28.89-3.88,4.44-9.77,7.3-15.11,10.23-4.5,2.46-7,1.11-7.8-3.87s-1-9.89-1.5-14.84Z"/><path class="cls-1" d="M88.58,123.36c18.94-9.61,30-27.92,46.13-41.41,5.4,13.77,9.7,27.52,11.93,41.84a69.15,69.15,0,0,1,.83,13.91c-.31,6.34-2.95,8.42-9.15,7.14a94.34,94.34,0,0,1-14.7-4.57c-8.81-3.4-17.51-7.06-26.2-10.74-3.1-1.31-6.05-3-9.07-4.51Z"/><path class="cls-1" d="M203,78q-1.67,34.19-3.34,68.38c-.3,6.23-1.44,7.41-7.39,7.19-7.6-.28-8.7-1.17-8.35-7.76q3.2-61.13,6.51-122.26c.27-5,.39-10,.73-15,.29-4.29,4.31-8.64,7.67-8.52,3.51.12,7.94,5.5,7.73,9.58Q204.77,43.77,203,78ZM194.78,6.08c-.12,1.24-.25,2.22-.31,3.2q-2.87,49.82-5.73,99.64c-.7,12.29-1.32,24.58-2,36.87-.16,2.73.19,4.71,4.07,3.54.34-5.07.72-10.18,1-15.3q2.36-41.6,4.69-83.2Q197.63,30.4,198.76,10C198.9,7.47,199,5,194.78,6.08Z"/><path class="cls-1" d="M62.45,120.91C49,108.05,35.13,95.65,24.9,79.83c-2.17-3.35-2.12-6.39-.19-10.19,5.83-11.5,16-16.45,27.57-19.57,3.66-1,4.63,1.74,5,4,1.63,9,3.15,18,4.21,27.08,1.26,10.71,2,21.48,3,32.23.2,2.35,0,4.73,0,7.1Z"/><path class="cls-1" d="M207.19,142.26c.1-1.75-.2-3.63.34-5.22q21.1-61.6,42.34-123.16c1.31-3.8,3.55-5,7.27-3.35,1.06.47,2.19.79,3.28,1.2,5.45,2.08,6,3.1,4.09,8.51Q243.63,80.61,222.7,141c-2,5.9-3.64,6.39-10,3q7.8-23.28,15.65-46.68c8.67-25.86,17.37-51.72,25.9-77.63.57-1.74,3.48-4.34-.34-5.65-.58-.2-2.74,2.6-3.31,4.3q-20.3,60-40.39,120.13c-.46,1.37-1.08,2.68-1.63,4Z"/><path class="cls-1" d="M5.85,137.86h58c-1.21,2.32-1.83,4.47-3.18,5.93C51.23,154,42,164.43,31.89,174c-6.57,6.19-10,5.38-13.63-2.76C13.62,160.65,10.15,149.59,5.85,137.86Z"/><path class="cls-1" d="M71.82,145c.53,3.61,1.24,6.22,1.24,8.82,0,14.13-.16,28.26-.3,42.39,0,4.23-2.29,5.5-6.2,4.45-8.35-2.24-16.74-4.33-25-6.79-1.22-.36-2.86-2.54-2.71-3.67.43-3.23,1.06-6.72,2.73-9.42a118.82,118.82,0,0,1,11.16-15.28C58.56,158.68,64.91,152.33,71.82,145Z"/><path class="cls-1" d="M57,128.72h-50c-2.2-14-.35-26.83,7.72-39.27C29.19,101.85,44.3,112.87,57,128.72Z"/><path class="cls-1" d="M150.2,224.86l8.33,1.33c1,8.87,2.08,17.91,3.11,27,1.6,14.06,3.11,28.13,4.82,42.17.68,5.56,3.44,10.14,8.2,15.1V226.48c10.92-.79,21.39-1,31.7-2.44s20.48-4,31.58-6.17c-1.21,7.76-1.84,16.32-3.94,24.5-5.81,22.71-12.07,45.32-18.45,67.88-7.68,27.14-10.47,54.91-10.8,83-.17,14.81.54,29.64,1.07,44.46.11,3-.45,4.93-3.46,6.19-18.61,7.82-37.18,7.78-55.82.13-2.84-1.17-4.12-2.75-3.62-6,6.17-40.7,1.76-80.66-8.61-120.2-6.71-25.57-13.53-51.12-19.85-76.8-1.88-7.64-2.24-15.66-3.38-24.16,4,1.36,7.08,2.14,9.88,3.48a6.07,6.07,0,0,1,2.81,3.59q17.37,68.16,34.4,136.4c1.13,4.57.43,9.62.43,14.44,0,16,0,32,0,48,0,5.39,2.6,8.79,8.25,10.8,0-1.78,0-3.38,0-5,0-22.16.71-44.35-.21-66.48-.7-16.91-3.21-33.76-5.35-50.59C157.7,283.2,153.75,255,150,226.81A10,10,0,0,1,150.2,224.86Z"/><path class="cls-1" d="M158.28,217.45c-9.33-.59-9.35-.59-10.75-8.87-.63-3.73-1.17-7.48-1.81-11.63l12.56-3.45Z"/><path class="cls-1" d="M117,198.81l2.63,9.2-1.14,1.3-7.63-5.76Z"/></svg>