<?xml version="1.0" encoding="utf-8"?>
<!-- Generator: Adobe Illustrator 21.0.0, SVG Export Plug-In . SVG Version: 6.00 Build 0)  -->
<svg version="1.1" id="Слой_1" xmlns="http://www.w3.org/2000/svg" xmlns:xlink="http://www.w3.org/1999/xlink" x="0px" y="0px"
	 viewBox="0 0 449.7 469.4" style="enable-background:new 0 0 449.7 469.4;" xml:space="preserve">
<style type="text/css">
	.st0{fill:#FFFFFF;}
</style>
<g>
	<path class="st0" d="M380.4,216.5c16.6,4.7,32.5,10,46.7,19.3c3.7,2.4,7.2,5.4,10.5,8.4c8.9,8.1,8.3,18.6,7.3,29.3
		c-4.5,49.5-31.8,83.9-72.9,108.8c-32,19.4-67.2,29.3-104.3,33.2c-43.7,4.6-86.5,0.4-128-14.1c-30.8-10.8-58.4-26.8-80.4-51.3
		c-21.8-24.3-32.9-52.7-33.8-85.4c-0.2-8.7,2.8-15.5,9.1-21.2c9.3-8.4,20.4-13.5,31.8-18.1c0.5,0.5,0.8,0.7,0.9,0.9
		c2.7,7.5,0.6,12.6-7,15.6c-2.3,0.9-4.2,3.3-5.9,5.3c-4,4.7-4.4,10-0.2,14.5c3.5,3.9,7.8,7.4,12.4,9.8c17.2,9.3,36.1,13.5,55.1,16.9
		c54.1,9.6,108.6,11,163.3,7.3c32.8-2.2,65.3-5.9,96.9-15.4c9.5-2.8,18.9-6.6,27.5-11.4c16-9.1,15.8-20.2,0-29.4
		c-5.6-3.3-11.8-5.3-17.6-8.2c-2-1-3.7-2.8-5-4.6C384.5,223.7,382.7,220.3,380.4,216.5z M60.2,292.3c0.7,24.6,7.7,46.9,26.1,64.6
		c10.1,9.8,22,16.4,35.6,20c-4-7.3-8.4-13.8-11.4-20.9c-6.3-14.9-8.5-30.7-8.2-46.9c0-2.1,0.5-4-2.7-4.9
		C86.6,300.5,73.7,296.4,60.2,292.3z M140.5,384.9c-7.8-24.2-10.7-48.5-4.2-73.5c-9-1.5-17.4-2.9-25.8-4.3
		C106.2,337.2,116.8,374.5,140.5,384.9z"/>
	<path class="st0" d="M100.2,436.9c7.9-9.4,15.3-18.1,22.6-26.8c-0.1-0.4-0.1-0.7-0.2-1.1c-2.8,0.6-6,0.7-8.4,1.9
		c-9.3,4.8-18.4,10.1-27.5,15.2c-6,3.3-6,3.3-12.8-0.8c13.1-6.6,25.7-12.9,38.8-19.6c-4-3-7.3-5.1-12.2-3.6
		c-14.9,4.6-30,8.9-44.8,13.6c-3,0.9-5.3,1.3-7.9-0.4c-7-4.7-14.7-8.6-20.9-14.2c-8.9-8-9.1-17.8,0.1-25.5
		c7.8-6.5,17.2-11,26.1-16.3c0.8-0.4,2.7,0,3.4,0.6c39.2,38.4,87.6,56.4,141,62.8c53.4,6.5,105.4,1.1,154.9-21
		c20.4-9,39.1-20.7,55.6-35.9c1.1-1,3.5-1.9,4.6-1.4c8.1,3.7,16.7,6.9,24,11.9c10.4,7.1,11.3,17,2.4,25.8
		c-6.2,6.1-13.5,11.4-21.1,15.7c-21.4,12.1-45,18.1-68.8,23.2c-50.5,11-101.5,13.9-153,10.3c-30.5-2.1-60.6-6.2-90.3-13.2
		C104.3,438.1,102.9,437.7,100.2,436.9z"/>
	<path class="st0" d="M449.7,412.5c-7.3,9.8-17.2,16.2-27.8,21.5c-24.8,12.3-51.4,19.2-78.4,24.3c-51.6,9.8-103.7,13.1-156.2,9.8
		c-44.3-2.7-88.1-8.7-130.2-23.6c-14.2-5-27.9-11.1-39.7-20.6c-3.9-3.1-7.5-6.7-10.5-10.6C-3.3,400.3-2,384.2,10,372.8
		c10.7-10.1,24-15.4,37.6-20c0.9-0.3,1.9,0,3.2,0.8c-1.4,0.8-2.9,1.5-4.3,2.4c-8.5,5.5-17.7,10.2-25.2,16.9
		c-12.4,11.1-12.8,25.1-0.7,36.7c7.7,7.4,16.9,13.6,26.4,18.5c24.9,12.8,52,19.3,79.4,24.3c48.9,8.8,98.3,11,147.8,7.8
		c46.7-3,92.7-9.9,136.7-26.7C424.8,428.3,438,421.8,449.7,412.5z"/>
	<path class="st0" d="M161.7,279.4c3.6-4.6,6.9-7.3,13-7.1c26.6,0.8,53.3,1.7,79.9,1c26.7-0.6,53.1-4.2,78.3-13.8
		c6.2-2.3,12-5.7,17.8-8.9c2.8-1.6,5.4-4,7.6-6.4c8.2-9,5.9-18.5-5.6-22.5c-10.3-3.6-20.9-2.9-31,0.4c-11,3.6-21.5,8.6-32.3,13.1
		c-1.5,0.6-2.9,1.5-4.5,2.3c-1.4-5.6-0.2-9.1,5.3-11.8c16.4-8,33.2-13.7,51.7-13c8.1,0.3,15.9,2,22.8,6.5c10.8,6.9,13,18,4.5,27.6
		c-4.9,5.5-11.1,10.1-17.5,13.7c-17.9,9.9-37.6,14-57.6,16.9c-42.4,6.3-85,5.4-127.6,2.9C165,280,163.6,279.7,161.7,279.4z"/>
	<path class="st0" d="M235.7,0c4.6,11.8,6,22.7,5.2,33.9c-0.9,12.6-4.4,24.5-8.9,36.2c-3.1,7.9-5.8,15.9-7.6,24.1
		c-3.2,14.5,0.8,27.7,9,39.7c2.6,3.8,5.3,7.5,7.5,11.6c-12.6-6.9-25.2-13.7-34-25.3c-8.8-11.6-9-25.6-0.2-38.6
		c4-5.9,8.7-11.4,13.4-16.7c16-17.9,22.5-38.1,15.6-61.7C235.6,2.6,235.7,1.9,235.7,0z"/>
	<path class="st0" d="M262.4,246.1c2.7-6.2,5.6-12,7.8-18c2.7-7.4,4.1-15.1,2.5-23.1c-2-10.6-10.2-16.7-21-15.3
		c-15.1,2-27.4,10.1-39.1,19c-24.9,19-45.6,42.4-65.3,66.6c-2.9,3.6-5.9,5-10.3,3.7c0.1-0.4,0.1-1,0.3-1.3
		c22.1-27.8,45.2-54.8,73.2-76.9c11.1-8.8,22.9-16.7,37.2-19.8c14-3,24.5,2.7,28.9,16.3c5.1,15.9,2.5,31.2-5.1,45.9
		C269.3,247.5,265.9,246.5,262.4,246.1z"/>
	<path class="st0" d="M133.4,267c-0.4,0.5-1.2,1.7-2.1,2.9c-0.6,0.8-1.3,1.5-2.1,2.3c-13.6-6-26.6-12.7-37.5-22.7
		c-3.1-2.9-6-6.3-8.3-9.9c-6.9-10.7-4.7-21.4,5.6-28.8c7.8-5.6,16.8-7.9,26.1-9.1c21.4-2.8,49.4,4,67.7,16.1
		c-4.5,6.2-6.1,6.5-12.9,3.3c-19.9-9.4-40.6-14-62.5-8.8c-7.8,1.9-15.5,4.8-17.6,13.6c-2.1,8.9,3.6,15.2,10,19.8
		C110.6,253.3,122,259.8,133.4,267z"/>
	<path class="st0" d="M338.8,238.1c0.1,4.7-0.8,7.6-5.3,8.9c-24.7,7.5-49.5,14.8-75.4,16.8c-11.3,0.9-23.1,0.4-34.2-1.8
		c-16.5-3.4-21.7-16.4-13.6-31.2c7.3-13.4,18.5-22.1,33.4-25.7c8.8-2.1,10.9-1.1,15.9,6.8c-5.1,0.5-10.2,0.7-15.1,1.7
		c-9.4,1.8-17.6,6.2-23.6,13.8c-8.8,11.1-5.7,23,7.5,28.1c10.7,4.1,21.9,3.8,33.1,2.7c24.4-2.4,47.5-9.7,70.4-17.9
		C334.1,239.4,336.2,238.9,338.8,238.1z"/>
	<path class="st0" d="M272.7,78.5c8.5,8.5,7.3,24.3-1.5,30.1c-13.5,8.9-15.3,17.9-6.1,31.3c0.4,0.6,0.8,1.3,0.8,2.2
		c-7-3.2-13.4-7.2-17.4-14c-3.2-5.3-2.6-10.3,2.2-14.3c3.2-2.7,7.1-4.9,11-6.5c13-5.1,16.2-11.2,12.2-24.7
		C273.6,81.6,273.3,80.5,272.7,78.5z"/>
	<path class="st0" d="M285.9,201.5c10,0.9,19.5,1.8,29.1,2.7c-10,2.2-17.9,10.6-29.1,10.1C285.9,209.9,285.9,206,285.9,201.5z"/>
	<path class="st0" d="M202.3,200.3c-5.2,4.4-9.3,7.8-13.4,11.1c-0.7,0.5-2.2,0.7-3,0.3c-4.9-2.5-9.8-5.3-16.1-8.8
		C181.1,202,191,201.2,202.3,200.3z"/>
</g>
</svg>
