<svg id="Слой_1" data-name="Слой 1" xmlns="http://www.w3.org/2000/svg" viewBox="0 0 495.37 435.26"><defs><style>.cls-1{fill:#fff;}</style></defs><title>fruits</title><path class="cls-1" d="M432.51,0c12.23,1.42,23.83,2.54,35.34,4.27a11.29,11.29,0,0,1,6.93,4.57c7.64,11.79,9.34,25.09,8.67,38.81-1.08,22-7.87,42.41-17.15,62.13-1.25,2.66-1.46,4.57.52,7.16,33.68,44.11,36.65,91.4,13.72,140.94-16.29,35.2-41.72,63.25-71.35,87.59A399.61,399.61,0,0,1,243.61,427c-40.18,9.29-80.67,12-121.18,1.7-9.61-2.43-8.24.08-9-11-.46-6.76-.63-13.55-.95-20.78,4.87,2.62,9.55,4.78,13.75,7.62,1.17.79,1.82,4,1.22,5.46-2.17,5.36-5,10.46-7.45,15.5,6.58-1.14,15.49-9.53,16.05-16.52,1.06-13.28-10.83-15-19.59-20.31l6.6-3C251.13,326.89,353.18,238,430.83,120.61c5.8-8.77,8.53-17.52,7.74-28-2.24-29.55-4-59.14-5.88-88.72C432.61,2.75,432.58,1.62,432.51,0ZM151.84,403l.29.89c1.7-.44,3.44-.78,5.1-1.34,14.67-4.91,29.41-9.64,44-14.83C254,368.91,305.4,347.12,352.92,317c28.44-18,54.83-38.52,75.73-65.27C447.83,227.18,460.3,200.1,458.3,168c-.55-8.79-2.26-17.33-6-25.14-.56,7.91-.53,15.88-1.8,23.65-4.29,26.16-16.86,48.57-32.88,69.18-26.1,33.59-58.91,59.63-94.3,82.63-49.76,32.35-103.21,57.37-158.19,79.33C160.69,399.43,156.27,401.23,151.84,403Z"/><path class="cls-1" d="M10.69,279.07c3.26,5.47,6.33,9.51,8.11,14a12.62,12.62,0,0,1-.45,8.87c-1.93,4.3-5,8.08-6.95,13.07,6-3.94,12.15-7.76,18.08-11.86,2.95-2,2.32-5.1.77-7.62-3.44-5.61-7.17-11-10.83-16.62,9,0,18.39.13,27.78,0,49.16-.78,96.42-11.34,142.22-28.58,82.22-31,154.64-77.92,220.05-136.13a15.82,15.82,0,0,1,4.76-3.28c-1.09,2.07-2.14,4.16-3.29,6.19C384.5,164,350.08,204.53,310.56,240.79A775.46,775.46,0,0,1,136,361.29c-21.41,10.86-41.58,11.21-63.29,3.43C45.53,355,23.91,338.52,8.2,314.29c-2.21-3.41-3.11-6.58-2.13-10.72C7.87,296,9,288.23,10.69,279.07Zm259.79-33.64c-15.16,6.78-30.14,14-45.53,20.24-41.09,16.63-84.56,23.08-128.11,29-14.63,2-29.31,3.59-44,5.37a11.18,11.18,0,0,0,4.45.84,645.45,645.45,0,0,0,96.67-5.2c23.93-3.19,47.62-7.62,70.46-15.78C243.37,273.11,257.56,260,270.48,245.44Z"/><path class="cls-1" d="M.42,194.44c5.2-1.88,10.12-3.41,14.84-5.42,7.34-3.13,9.15-7.23,6.44-14.7-1.34-3.71-3.42-7.16-5.34-11.11,94.36,34.72,189.36,36.46,285,6.24l.75,1.05c-12.64,9.13-24.92,18.83-38,27.29-45,29.09-94.59,46.93-146.81,57.71-16.43,3.39-33.15,5.36-49.77,7.83a11.86,11.86,0,0,1-5.8-.75C30,250.1,11.38,225.78.42,194.44Zm32.9-4.8c.42.71.52,1.1.76,1.24,23.73,13.84,47.56,27.55,74.42,34.59,16.6,4.35,33.18,4.9,49.38-2.29,6.07-2.69,12.39-4.83,18.58-7.26a31.35,31.35,0,0,0,3.14-1.65C128.32,220.88,81.14,204.37,33.32,189.64Z"/><path class="cls-1" d="M0,188.48l8.21-22.23c2.79,5,5.25,9,7.15,13.28.44,1-.66,3.57-1.74,4.18-4,2.24-8.27,4-12.45,5.89Z"/></svg>