<svg id="Слой_1" data-name="Слой 1" xmlns="http://www.w3.org/2000/svg" viewBox="0 0 1058.15 800"><defs><style>.cls-1{fill:#fff;}</style></defs><title>garniry</title><path class="cls-1" d="M16.61,12.46c1,18,2.09,36,2.86,54q2.73,63.67,5.13,127.36c.25,6.58.48,12.25,11.29,8.48L43,16.7l1.43,0,9.9,185.45c10.38,4.4,11.12-1.13,11.42-8.56Q69.19,107.16,73,20.8a8.2,8.2,0,0,1,2.52-6.18l9,187.22c10.18,4.71,11.09-.72,11.31-8.17q2.41-83.9,5.16-167.79c.15-4.64.73-9.26,1.11-13.89l5.19-.32c.87,6.33,2.24,12.63,2.52,19,2.24,50.43,5,100.86,6.09,151.32A649.43,649.43,0,0,1,112.78,261c-2.15,21.36-13.63,37.45-35,45.52-3.43,1.3-6.75,7-7.32,11.11-7.9,57-5.56,114.15-1.39,171.28,5.3,72.52,11.77,145,15.59,217.58,1.2,22.71-3.69,45.94-7.5,68.64-1.75,10.42-5.79,24.16-18.06,24.8-13.1.68-17.57-13-21.07-23.63-12.2-37.09-11.64-75.42-8.95-113.7,6.31-89.73,13.75-179.39,19.32-269.16,1.5-24.18-2.09-48.68-3.25-73-.43-9-3.72-15-12.45-19.66-20-10.73-27.08-30.34-30-51.32C.8,235.79-.44,221.79.15,208,2.81,146.25,6.21,84.5,9.5,22.75c.2-3.79,1.82-7.51,2.78-11.26Zm43.72,770.2,4.91,2.2c3.52-6.54,9.2-12.77,10.17-19.67,2.83-20.29,6.34-41,5-61.27C76.15,637.7,68.85,571.67,64.61,505.44c-4.35-68-4.29-136.16,3.77-204,.38-3.23,2.43-7.79,5-9,33.15-15.55,35.34-45.51,37.09-75.07-6.06,17.39-12,35.66-18.84,53.57C88,280.3,81,285,69.91,284.22c-13.14-1-26.4-.22-40.85-.22,3.9,17.78,17.68,16.6,28,19,0,64.22-1.19,127.65.4,191,1.15,45.73,6.16,91.36,9.18,137C70,681.74,72.37,732.46,60.34,782.66Z"/><path class="cls-1" d="M635.94,22.64c131,31.72,282.49,170.27,279.87,375.58-2.53,198.76-155.06,367-346.1,383.07-215.55,18.1-371.13-133.77-409.81-278.95,32.19,88.24,87.34,157.75,168.72,205.06,81.89,47.61,170,61.56,262.76,43.71C746.67,721.23,867.75,592.06,891,435,914.54,276,825.42,83.62,635.94,22.64Z"/><path class="cls-1" d="M610.49,32c137.43,31.89,277.9,170.16,270,368.66C872.87,591.75,714.38,747.58,524,750.94c-207.7,3.67-337.1-152.89-361.09-268.32,9.94,20.73,19.49,45.92,33.26,68.54C270.82,673.75,380.59,737.81,524.08,738c173.28.23,320.84-132.51,342.31-303.77C888,261.84,788.09,97.79,624.55,37.13,621.05,35.84,617.55,34.58,610.49,32Z"/><path class="cls-1" d="M368.81,555.26c-68.44-59.4-100.19-173.48-47.75-274,49.35-94.64,161.47-143.38,264.52-114.86,105,29.07,181,129.93,167.89,247,5.59-124.84-78.85-210.12-166.88-232.85-94.28-24.34-193.61,14.37-246,96.34C288.58,358.3,290.85,470.08,368.81,555.26Z"/><path class="cls-1" d="M1043.09,413.22c-2.14,1.33-2.5,1.74-2.86,1.75-34,.68-27.51,3.72-33-26C995,322.85,984.53,256.57,981.36,189.23c-2.74-58.39,13.93-112,36.87-164.26a71.82,71.82,0,0,1,15.06-21.44c3.1-3.08,10-4.13,14.61-3.18,2.39.49,5,7.35,4.9,11.31q-1.64,127.31-4,254.62c-.73,36.13-2.58,72.25-4,108.37C1044.3,387.62,1043.65,400.61,1043.09,413.22Z"/><path class="cls-1" d="M1024.82,425.68c1,4.12,2.66,8.2,2.84,12.35,1.48,34.89,2.09,69.82,4.17,104.67,1.83,30.62,5.57,61.12,7.86,91.71,3.65,48.61,4.61,97.18-6.54,145.26l3.85,2.09c3.62-5.26,9.54-10.16,10.46-15.86,3.18-19.82,7.27-40.06,6.2-59.87-2.57-47.39-8.27-94.61-12-142-3.4-43.18-5.9-86.43-8.69-129.65-.17-2.69.52-5.43,3.73-8.93,1,2.43,2.72,4.82,2.9,7.31,3.4,47,6.36,94,9.95,141,2.62,34.36,7.8,68.63,8.52,103,.62,29.2-3.1,58.55-5.83,87.74-.63,6.79-4.26,13.67-7.82,19.74-7.86,13.39-19.59,14.53-25.75.69-7.71-17.3-15.18-36.49-15.45-55-.69-47,1.84-94,4.67-140.94,3.14-52,8-103.94,12.17-155.9.17-2.07.39-4.14.59-6.22Z"/><path class="cls-1" d="M1053.39,384.34V268.53h.92V383.92Z"/><path class="cls-1" d="M443.1,249.19c12.06,12.57,16,27.23,14.56,43.23-4.28,46.17-43.81,89-89.44,97.36-13.23,2.42-26.25,1.66-38.45-4.6-4.07-2.09-7.76-4.94-12.35-7.91A1402.3,1402.3,0,0,0,443.1,249.19Z"/><path class="cls-1" d="M565.36,339.55a1395.68,1395.68,0,0,0,68.19,165c-12.83,5.25-25.22,4.6-37.41,0-22.3-8.34-37.85-24.44-49.06-44.82-14.82-26.94-20.65-55.38-11.59-85.59C540.52,357.41,551.82,344.6,565.36,339.55Z"/><path class="cls-1" d="M475.12,441.72c-13-7.23-20.63-18.06-24.58-31.4-6.89-23.24-3.72-45.87,5.81-67.7,11.5-26.36,29-47.28,56-59,16.31-7.12,32.51-6.88,46.92.57A1407.15,1407.15,0,0,0,475.12,441.72Z"/><path class="cls-1" d="M647.38,555.68C638,569.21,625.14,575.93,609.9,578c-31.77,4.38-59-6.63-83.26-26.17-18.25-14.72-31.24-33.1-35.81-56.64-2.56-13.18.11-27.73,7.17-37.37A1395.66,1395.66,0,0,0,647.38,555.68Z"/><path class="cls-1" d="M594.24,258.25a1391.48,1391.48,0,0,0,122.14,131.5c-5.21,3-9.59,6.3-14.48,8.3-18.09,7.38-36.23,5.26-53.36-2.55-38.09-17.38-62.42-46.2-69.67-88.11C575.66,288.91,581.77,269.8,594.24,258.25Z"/><path class="cls-1" d="M616.3,244.92a1427.65,1427.65,0,0,0-178.81-11.54c1.58-16.49,9.55-28.61,21.72-38,21.52-16.64,46.48-21.66,73-19.74,24.15,1.75,46.25,9.36,64.49,26,10.24,9.35,17.28,20.62,19.11,34.66C616.12,238.87,616.11,241.5,616.3,244.92Z"/><path class="cls-1" d="M303.91,436.73a44.92,44.92,0,0,1,15.8-17.51c12.37-8.23,26.29-11.56,40.83-10.81,40.75,2.08,73.11,19.6,95.14,54.4,8.53,13.47,12,28.42,8.62,44.44a50.77,50.77,0,0,1-1.9,6.18c-.49,1.38-1.17,2.7-2,4.68A1392.15,1392.15,0,0,0,303.91,436.73Z"/></svg>