<svg id="Слой_1" data-name="Слой 1" xmlns="http://www.w3.org/2000/svg" viewBox="0 0 479.86 270.26"><defs><style>.cls-1{fill:#fff;}</style></defs><title>garniry</title><path class="cls-1" d="M448.12,198.22A65.22,65.22,0,0,1,427.7,234.4c-24.32,22.39-53.11,35.07-86.27,35.25-82.33.45-164.69,1.27-247-.36-37.46-.74-68.13-18.2-87.25-52.07-3.2-5.67-4.71-12.31-7.19-19ZM32.38,206c.52,10.32,5.73,17.76,12.38,24.23,16.15,15.73,35.62,25.45,57.42,30.65,3.5.84,7.19.86,11.64,1.36-13.23-14.7-25-28.66-28.92-48h15.44c3.14,15,9.83,28.25,17.76,41.08,3.92,6.35,9.1,7.91,16,6.26-7.6-15-11-30.86-13.66-47.73h127.8V206Z"/><path class="cls-1" d="M185.41,33.65c4.79-.24,8.79-.32,12.76-.73,1-.1,1.85-1.27,2.77-1.95-1-.8-1.82-2.12-2.89-2.31a59.3,59.3,0,0,0-7.47-.41c-5.95-.28-6.06-.43-4.81-7,3.83-.2,7.81-.21,11.72-.72,1.21-.16,2.25-1.65,3.37-2.53-1.11-.69-2.19-1.92-3.34-2-3.95-.25-7.92-.1-12.19-.1V8.4C202.75,4,220,1.68,237,9.95A33.3,33.3,0,0,1,251.7,23a7,7,0,0,0,5,3c22.28.65,44.61,2.08,66.85,1.25,34.76-1.29,69.45-4.66,104.21-6.08,13.68-.56,27.48,1.67,41.2,2.87a18.34,18.34,0,0,1,6.94,2.62c5,2.83,5.31,6.7.59,10.1-7,5.07-15.36,6.17-23.64,7-23.69,2.48-47.18-.61-70.77-2.36-39.66-2.94-79.27-8-119.18-4.55-5.76.5-10.61,1.39-15.08,6.48C241.13,51,231,53.78,221.22,54.59c-11.86,1-23.85.23-36.2.23V46.27c3.87-.27,8-.37,12-1,1.38-.2,2.58-1.61,3.86-2.46-1.26-.67-2.49-1.82-3.79-1.91-3.78-.26-7.59-.09-11.74-.09Zm287.42-2.83c-1.51-5.11-5.5-6.17-9.08-6.68-8-1.14-16.25-2.6-24.29-2.14-29.74,1.68-59.43,4.26-89.17,6.16-33.45,2.14-66.92,2.46-100.3-1.29-1.59-.18-3.63-1-4.49-2.15-8-11.18-25.43-17.68-38-14.58,5.8,2.09,12.53,4.33,19.11,6.94,4,1.57,5.57,4.79,5.37,9.19-.26,5.59-.06,11.2-.06,17.12,6.4-.7,8.94-5,11.94-9A6.52,6.52,0,0,1,248.41,32c13.31.27,26.63,1.38,39.93,1.17,29.14-.46,58.35-.54,87.39-2.65C407.94,28.18,440,24.27,472.83,30.83Z"/><path class="cls-1" d="M192,189.64H180.86A67.94,67.94,0,0,1,194.92,154c12.79-16.43,30.18-25.15,50.18-29.34Q285,116.31,321.2,134.9c3.32,1.71,6.41,3.86,9.6,5.81l-.59,1.78c-3.81-.89-7.94-1.12-11.37-2.79-34-16.52-67.32-17.16-99.67,3.82-13.06,8.48-22.85,19.88-26.11,35.73C192.4,182.48,192.36,185.83,192,189.64Z"/><path class="cls-1" d="M210.39,131.83c-5.79,6.17-10.61,9.86-18.82,10.29-35.17,1.82-69.93,6.73-102.64,20.76C81.07,166.25,73.68,171,66.7,176c-3.76,2.69-6.11,7.31-9.26,10.92a10.36,10.36,0,0,1-4.81,2.92c-.2-8.4,4.22-13.89,9.63-18.7,10.64-9.46,23.38-15.21,36.56-20,26.43-9.62,53.88-14.6,81.8-17.15C190.16,133.14,199.71,132.6,210.39,131.83Z"/><path class="cls-1" d="M208.29,189.62h-7.53a43.93,43.93,0,0,1,10.15-28.53c7.48-9.33,17.26-15.51,28.18-20,18.37-7.58,37.47-8.79,56.86-5.72,5,.79,9.66,3.25,14.25,6-6.95,0-13.95.54-20.83-.1-26-2.4-48.69,4.79-67.44,23.22A49.79,49.79,0,0,0,208.29,189.62Z"/><path class="cls-1" d="M254.78,161.82c-13.92,2.89-23.49,11.27-29.14,24-1.66,3.73-3.52,4.74-7.45,3.49A43.92,43.92,0,0,1,236.77,162c15.92-10.87,34-13.43,52.52-11.35A104,104,0,0,1,318,158.29c13.34,5.67,21.88,16.35,25.69,30.93-3.61,1.16-5.7.82-7.38-3-6.64-15.16-19.25-22.82-34.8-26.3a100,100,0,0,0-37.21-.91c-2.52.39-4.91,1.67-7.36,2.55Z"/><path class="cls-1" d="M136.14,128.45,129,129.81c-.13-1.62-.33-3-.33-4.41q0-59.16,0-118.33c0-1.33-.35-2.91.23-3.92.73-1.26,2.36-2.94,3.44-2.83,1.42.15,2.8,1.74,3.93,3,.43.46.14,1.6.14,2.43q0,59.91,0,119.83C136.36,126.35,136.24,127.16,136.14,128.45Z"/><path class="cls-1" d="M152.15,125.42l-7.24.95c-.1-1.65-.27-3.07-.27-4.49q0-57.5,0-115c0-1.49-.23-3.21.43-4.4A4.75,4.75,0,0,1,148.52.27c1.19,0,2.65,1.19,3.45,2.26.59.79.41,2.24.41,3.39q0,58.25,0,116.49C152.37,123.23,152.25,124,152.15,125.42Z"/><path class="cls-1" d="M64.73,190.45c2.8-7.43,8-11.74,13.67-15.48,11.57-7.58,24.5-11.89,37.74-15.36,24.59-6.44,49.72-9.06,75.08-10.67-2,7.76-3,8.59-10.36,9.08-27.12,1.83-54.12,4.4-79.92,13.82a81.56,81.56,0,0,0-27.41,16C71.49,189.71,67.71,189.64,64.73,190.45Z"/><path class="cls-1" d="M180,121.48l-7.41.37c0-2.08,0-3.85,0-5.63q0-54.48,0-109c0-1.33-.41-3,.2-3.92.85-1.35,2.51-3,3.79-3s2.57,1.93,3.67,3.18c.34.38.1,1.29.1,2q0,56.73,0,113.45A24.39,24.39,0,0,1,180,121.48Z"/><path class="cls-1" d="M332.86,189.47H229.39c1.42-7.14,3-8.69,9.5-8.51,23.27.62,46.56,1.13,69.81,2.18,6.91.31,13.75,2.22,20.61,3.49a24.05,24.05,0,0,1,3.9,1.43Z"/><path class="cls-1" d="M181.56,166.31c-.11,4.42-1.62,6.61-6.77,6.84-20.09.91-40.22,2-59.51,8.55-3.29,1.12-6.85,2-9.64,4-6.52,4.52-13.64,4.52-21,4C92.58,175.8,153.71,161.06,181.56,166.31Z"/><path class="cls-1" d="M254.78,161.82l2.12-.27c9.44.22,18.91,0,28.31.76,8.77.67,17.46,2.41,26.21,3.46,6,.72,9.42,4.89,12.9,7.8l-81.39-4.85Z"/><path class="cls-1" d="M398.29,190.53c-1.27-.82-3.25-1.36-3.7-2.5-3.86-9.78-11.66-15.58-20.29-20.52-15.16-8.67-31.71-13.59-48.56-17.61-5.32-1.27-10.71-2.27-16.07-3.39l-.07-1.41c6.2,0,12.56-.9,18.57.17,18.8,3.32,36.77,9.36,52.71,20.13a76.68,76.68,0,0,1,14.25,13c2.46,2.8,3.42,6.9,5.05,10.42Z"/><path class="cls-1" d="M160.62,123.09V90.67q0-42.19,0-84.38c0-2.56-.45-5.41,3.75-6.3,0,3.44,0,6.54,0,9.63q0,54.42,0,108.84C164.36,120.82,165.12,123.81,160.62,123.09Z"/><path class="cls-1" d="M387.12,189.48c-4.8,1.13-7.91-.36-11.14-3.84-8.31-9-19.54-13.13-31.07-16-6.38-1.57-11.15-4.67-14.56-10C347.21,158.74,381,176.36,387.12,189.48Z"/><path class="cls-1" d="M173.4,182.6l-1.2,6.9h-53C136.46,181.44,154.9,183.46,173.4,182.6Z"/><path class="cls-1" d="M344.27,176.56c9.14,2.92,17.29,5.42,23.72,13-5.24-.05-9.94,1.87-13.82-2.32a2,2,0,0,0-1.36-.55C346.63,186.71,345.88,182,344.27,176.56Z"/></svg>