<svg id="Слой_1" data-name="Слой 1" xmlns="http://www.w3.org/2000/svg" viewBox="0 0 484.3 489.23"><defs><style>.cls-1{fill:#fff;}</style></defs><title>goryachiye-blyuda</title><path class="cls-1" d="M317.63,6.3,322,113l5.5.27L331.13,6h1.29l5.2,106.91,5.5.41,4-107.29h1.29L352.83,113h5.49L361.55,6.22l1.23,0c.54,8.39,1.11,16.78,1.61,25.18q2.46,41.41,4.86,82.82c.79,14,0,28-3.77,41.61-2.56,9.34-7.85,16.37-17,20.32a6,6,0,0,0-3.06,4.27c-1,21.94-2.84,43.93-2.26,65.85.82,31.12,3.33,62.2,5.39,93.29,1.17,17.77,3.13,35.5,4.26,53.27s.84,35.67-3.43,53.16a43.4,43.4,0,0,1-5.28,12.27c-2.81,4.54-6.11,4.56-9.68.5-5.63-6.4-7.39-14.47-8.68-22.53-4-24.71-2.37-49.5-.6-74.28,3.15-44.19,6.74-88.35,9-132.59.85-16.53-1.41-33.23-2.38-49.85-.08-1.31-.75-3.2-1.73-3.74-13.33-7.33-17-20.08-19.54-33.68-2.48-13.28-1.5-26.54-.63-39.84q3-45.13,5.9-90.26c.13-1.93.43-3.84.65-5.76Zm5.91,154.32c2.11,6.74,7,9,11.94,10.9,2.69,1,3.35,2.34,3.09,5.16-.82,8.62-1.74,17.27-1.77,25.91-.24,54.33.82,108.6,6.11,162.75,2.22,22.72,2.59,45.59-.26,68.36-.77,6.13-1.85,12.22-2.79,18.32l1.23.76c1.61-1.87,4-3.5,4.68-5.67a83,83,0,0,0,3.85-16.42c2.75-25.52.48-51-2.37-76.29-4.83-43-7.34-86-6.29-129.18.41-17,2.18-33.9,3.51-50.83.12-1.51,1.2-3.77,2.4-4.25,16.14-6.44,21-34.25,18.61-45.37-2.58,8.24-5.61,18.55-9.07,28.71-1.79,5.27-5.68,7.64-11.61,7.24C338,160.26,331.21,160.62,323.54,160.62Z"/><path class="cls-1" d="M397.86,244.79c-6.44-8.75-6.35-19.43-8-29.39-4.42-27.25-8.07-54.62-11.84-82-5.46-39.66,2.58-77.14,19.08-113.09A56.56,56.56,0,0,1,406.82,6c1.8-2,5.93-2.88,8.77-2.5,3.77.5,3.7,4.3,3.79,7.62,1.32,48.5-1.63,96.89-3.56,145.3-.86,21.63-1.57,43.27-2.38,64.9-.19,5.11-.49,10.21-.76,15.7H396.41l1.45,7.82Z"/><path class="cls-1" d="M426.21,403.16c-.52-8.63-1.14-15.74-1.25-22.86,0-1.91,1.15-4.07,2.31-5.74,23.53-33.91,37.95-71.34,42.11-112.38,6-58.73-7.87-112.7-41.34-161.39a21.56,21.56,0,0,1-3.88-16.69c20.9,13.15,53.13,84.17,58.24,128C490.71,283.27,471.74,346.38,426.21,403.16Z"/><path class="cls-1" d="M397.86,244.83c3.88-.26,5.63,1.46,5.77,5.44.86,24.31,1.52,48.63,2.93,72.91.84,14.44,3.24,28.78,4.37,43.21,2.06,26.11,3.09,52.23-2.42,78.12-.48,2.24-1.12,4.45-1.8,7.14,4.41.29,6.61-2.43,7.51-5.45,1.85-6.17,4.21-12.58,4.15-18.87-.23-21.78-.27-43.67-2.49-65.3-3.78-36.94-8.37-73.79-9.16-111-.06-2.88-.15-5.54,3.64-4.52,1.53,21.58,2.91,43,4.61,64.35,2.22,27.88,5,55.71,7,83.6,1.16,16.32.47,32.67-3.6,48.64a45.39,45.39,0,0,1-5.46,12.75c-4.12,6.55-9.36,6.85-13.78.44a51.6,51.6,0,0,1-7.25-15.68c-4.87-18.23-5.11-37-3.61-55.59,3-37.67,6.78-75.28,10.12-112.93.69-7.79,1-15.63,1.27-23.45,0-1.28-1.13-2.59-1.75-3.88A.17.17,0,0,0,397.86,244.83Z"/><path class="cls-1" d="M0,279.92C15.29,353.08,54.32,409.84,120.31,446s134.81,38.43,204.75,11a74.89,74.89,0,0,0,4.82,6.41c1.79,1.94,4,3.53,6.67,5.9-73.24,29.32-144.48,26.67-213.48-11C43.63,415,5.87,336.36,0,279.92Z"/><path class="cls-1" d="M150.8,350.59a133.24,133.24,0,0,1-35.35-39.33C62.27,222.66,114.34,108.95,216.18,91.6c28.32-4.82,55.71-.85,82,10.82,5.84,2.6,5.83,2.62,3.93,9.88-38.8-17.11-77.92-18.53-117-1.46-28.72,12.53-50.76,32.77-66.24,60C86.54,227.5,96,303,150.8,350.59Z"/><path class="cls-1" d="M320.65,445.36l1.83,5.6C194.43,509,31,430.43,5.73,278.28c18.06,70.14,57,123.08,119.88,156.59S253.87,471.16,320.65,445.36Z"/><path class="cls-1" d="M424.2,110.24c50.61,71.81,53.28,176.63.62,253-.53-5.35-.74-9.7,1.88-14.14a208.58,208.58,0,0,0,28.76-92.11c3-42.33-5.56-82.45-24.42-120.42a34.86,34.86,0,0,0-2.73-5.33C423.76,125,423,118.1,424.2,110.24Z"/><path class="cls-1" d="M381.37,423.77c.75,5.6,1.54,10.83,2.09,16.08.12,1.13-.27,2.93-1.06,3.45-10.61,6.88-21.34,13.59-32.63,20.71,2.47-7.83,4.51-14.41,6.62-21a5.8,5.8,0,0,1,1.59-2.89C365.63,434.69,373.37,429.34,381.37,423.77Z"/><path class="cls-1" d="M369.27,169.62c12.9,32.32,19.44,65.39,10.5,100.21.66-5.06,1.43-10.12,2-15.2,2.84-27.54-2.41-53.58-14.49-78.39-.88-1.81-.41-4.27-.57-6.44Z"/><path class="cls-1" d="M417.27,242.91l2-113.31.28,0c.19,3.38.56,6.77.54,10.15-.15,30.61-.3,61.22-.67,91.83C419.35,235.32,418,239.08,417.27,242.91Z"/><path class="cls-1" d="M380.8,407.82c1.72,5.84.11,9.59-4.63,12.61-5.79,3.7-11.18,8-17,12.3-1.42-5.46-.08-8.59,4-11.32C369.11,417.34,374.67,412.57,380.8,407.82Z"/><path class="cls-1" d="M309.28,10.14,268.38,0c14.8,1.46,28.3,4,41.33,8.56Z"/><path class="cls-1" d="M370.52,36.47l13.59,9.29c-2.44,1-4,2.35-5.07,2C373.24,46,370.17,42,370.52,36.47Z"/><path class="cls-1" d="M308.83,21.57,279.71,11.7c10.24,1.7,20.33,3.85,29.78,8Z"/><path class="cls-1" d="M371.82,54c4.35,2.42,4.35,2.42,4.86,9.44C371.33,60.57,371.14,60.21,371.82,54Z"/></svg>