<svg id="Слой_1" data-name="Слой 1" xmlns="http://www.w3.org/2000/svg" viewBox="0 0 1058.15 800"><defs><style>.cls-1{fill:#fff;}</style></defs><title>goryachiye-blyuda</title><path class="cls-1" d="M16.61,12.46c1,18,2.09,36,2.86,54q2.73,63.67,5.13,127.36c.25,6.58.48,12.25,11.29,8.48L43,16.7l1.43,0,9.9,185.45c10.38,4.4,11.12-1.13,11.42-8.56Q69.19,107.16,73,20.8a8.2,8.2,0,0,1,2.52-6.18l9,187.22c10.18,4.71,11.09-.72,11.31-8.17q2.41-83.9,5.16-167.79c.15-4.64.73-9.26,1.11-13.89l5.19-.32c.87,6.33,2.24,12.63,2.52,19,2.24,50.43,5,100.86,6.09,151.32A649.43,649.43,0,0,1,112.78,261c-2.15,21.36-13.63,37.45-35,45.52-3.43,1.3-6.75,7-7.32,11.11-7.9,57-5.56,114.15-1.39,171.28,5.3,72.52,11.77,145,15.59,217.58,1.2,22.71-3.69,45.94-7.5,68.64-1.75,10.42-5.79,24.16-18.06,24.8-13.1.68-17.57-13-21.07-23.63-12.2-37.09-11.64-75.42-8.95-113.7,6.31-89.73,13.75-179.39,19.32-269.16,1.5-24.18-2.09-48.68-3.25-73-.43-9-3.72-15-12.45-19.66-20-10.73-27.08-30.34-30-51.32C.8,235.79-.44,221.79.15,208,2.81,146.25,6.21,84.5,9.5,22.75c.2-3.79,1.82-7.51,2.78-11.26Zm43.72,770.2,4.91,2.2c3.52-6.54,9.2-12.77,10.17-19.67,2.83-20.29,6.34-41,5-61.27C76.15,637.7,68.85,571.67,64.61,505.44c-4.35-68-4.29-136.16,3.77-204,.38-3.23,2.43-7.79,5-9,33.15-15.55,35.34-45.51,37.09-75.07-6.06,17.39-12,35.66-18.84,53.57C88,280.3,81,285,69.91,284.22c-13.14-1-26.4-.22-40.85-.22,3.9,17.78,17.68,16.6,28,19,0,64.22-1.19,127.65.4,191,1.15,45.73,6.16,91.36,9.18,137C70,681.74,72.37,732.46,60.34,782.66Z"/><path class="cls-1" d="M635.94,22.64c131,31.72,282.49,170.27,279.87,375.58-2.53,198.76-155.06,367-346.1,383.07-215.55,18.1-371.13-133.77-409.81-278.95,32.19,88.24,87.34,157.75,168.72,205.06,81.89,47.61,170,61.56,262.76,43.71C746.67,721.23,867.75,592.06,891,435,914.54,276,825.42,83.62,635.94,22.64Z"/><path class="cls-1" d="M610.49,32c137.43,31.89,277.9,170.16,270,368.66C872.87,591.75,714.38,747.58,524,750.94c-207.7,3.67-337.1-152.89-361.09-268.32,9.94,20.73,19.49,45.92,33.26,68.54C270.82,673.75,380.59,737.81,524.08,738c173.28.23,320.84-132.51,342.31-303.77C888,261.84,788.09,97.79,624.55,37.13,621.05,35.84,617.55,34.58,610.49,32Z"/><path class="cls-1" d="M368.81,555.26c-68.44-59.4-100.19-173.48-47.75-274,49.35-94.64,161.47-143.38,264.52-114.86,105,29.07,181,129.93,167.89,247,5.59-124.84-78.85-210.12-166.88-232.85-94.28-24.34-193.61,14.37-246,96.34C288.58,358.3,290.85,470.08,368.81,555.26Z"/><path class="cls-1" d="M1043.09,413.22c-2.14,1.33-2.5,1.74-2.86,1.75-34,.68-27.51,3.72-33-26C995,322.85,984.53,256.57,981.36,189.23c-2.74-58.39,13.93-112,36.87-164.26a71.82,71.82,0,0,1,15.06-21.44c3.1-3.08,10-4.13,14.61-3.18,2.39.49,5,7.35,4.9,11.31q-1.64,127.31-4,254.62c-.73,36.13-2.58,72.25-4,108.37C1044.3,387.62,1043.65,400.61,1043.09,413.22Z"/><path class="cls-1" d="M1024.82,425.68c1,4.12,2.66,8.2,2.84,12.35,1.48,34.89,2.09,69.82,4.17,104.67,1.83,30.62,5.57,61.12,7.86,91.71,3.65,48.61,4.61,97.18-6.54,145.26l3.85,2.09c3.62-5.26,9.54-10.16,10.46-15.86,3.18-19.82,7.27-40.06,6.2-59.87-2.57-47.39-8.27-94.61-12-142-3.4-43.18-5.9-86.43-8.69-129.65-.17-2.69.52-5.43,3.73-8.93,1,2.43,2.72,4.82,2.9,7.31,3.4,47,6.36,94,9.95,141,2.62,34.36,7.8,68.63,8.52,103,.62,29.2-3.1,58.55-5.83,87.74-.63,6.79-4.26,13.67-7.82,19.74-7.86,13.39-19.59,14.53-25.75.69-7.71-17.3-15.18-36.49-15.45-55-.69-47,1.84-94,4.67-140.94,3.14-52,8-103.94,12.17-155.9.17-2.07.39-4.14.59-6.22Z"/><path class="cls-1" d="M1053.39,384.34V268.53h.92V383.92Z"/><path class="cls-1" d="M414.93,451.8c.49-23.25,6.2-45.47,14.18-67.06,25.49-69,62-131.75,107.77-189.19,19.7-24.71,44.39-42,75.28-50,77.32-20.07,156.29,32,167.25,111,7.29,52.56-11.49,95.09-51.92,128.6-37.27,30.88-78,56.45-120.82,78.88-30,15.75-60.94,29.54-93.92,38.08-17,4.4-34.17,7.44-51.9,5.58-29-3-45.38-20.83-45.94-50.15C414.9,455.66,414.93,453.73,414.93,451.8Z"/><path class="cls-1" d="M336.4,586.15c-20,5.73-31.6,2.36-38.34-11.12a26.15,26.15,0,0,1,8.32-33c11.27-8.06,24.37-6.29,35.77,4.67l57.67-57.82c5.35,7.12,9.33,13.73,14.61,19.07s11.73,9.27,17.54,13.72l-57.59,57.54c7.43,6.3,11.21,13.53,11,22.4a25.52,25.52,0,0,1-6.67,16.65,26.07,26.07,0,0,1-32.87,5.27C333.42,616.25,330.39,604.24,336.4,586.15Z"/></svg>