<svg id="Слой_1" data-name="Слой 1" xmlns="http://www.w3.org/2000/svg" viewBox="0 0 494.05 270.4"><title>khleb</title><path d="M121.2,18.24c.86-.47,1.63-.83,2.33-1.3C144.9,2.41,168-3.71,193.59,2.76,200.73,4.56,206,8.6,209.87,15.49A202.87,202.87,0,0,0,244,60.89a81.82,81.82,0,0,0,14.43,11.39c4.67,2.9,8,.47,7.08-5-.82-4.87-2-10-4.33-14.23-7.51-13.49-15.58-26.68-23.63-39.86-2.15-3.53-5-6.64-8.26-10.93C234,1.48,238,.53,242,.29c20.21-1.23,39.85,1.41,58.72,9a31.19,31.19,0,0,1,17.09,15.81,191.34,191.34,0,0,0,35.08,48.95,81.12,81.12,0,0,0,12,9.72,6.87,6.87,0,0,0,5.84.69c1.06-.51,1.56-3.6,1.21-5.3-.88-4.2-1.74-8.63-3.77-12.33-6.31-11.49-13.16-22.7-19.83-34-.74-1.26-1.64-2.42-2.84-4.16,12.06,1.4,22.35,5.67,32.45,10.92C387,44.34,396.23,49.23,406,52.3,430.9,60.18,447,76.45,458,99.89c6.07,13,6.73,24.58.41,37.09-1.73,3.43-3.62,4.36-7.36,3.25-16.72-5-33.73-5.6-50.95-3.09-2.12.31-4.89.12-6.56-1-21.89-14.91-46.4-19.19-72-16.34-38.89,4.33-71,22.3-97.07,51.32-1.77,2-3.68,4.06-4.67,6.45-2.18,5.26-5.89,6.21-11.13,5.84-34.54-2.45-69.18-3.89-103.63-7.22-26.34-2.54-52.42-7.61-76.4-19.81a76.7,76.7,0,0,1-13-8.4C1.22,136.46-3.27,121,2.33,103.38,6.16,91.37,13,81.19,21.7,72.26a155.16,155.16,0,0,1,78-44c4.39-1,6.11.27,8,4a195.28,195.28,0,0,0,36.08,50.05A61.55,61.55,0,0,0,156,91.6c4,2.38,6.71.5,6-4.11a54.57,54.57,0,0,0-3.78-13.36c-8.36-19.26-20.26-36.29-33.86-52.18C123.5,21,122.66,20,121.2,18.24Z"/><path d="M494.05,210.93c-.88,7.79-4.83,13.81-10.07,19.07-7.65,7.67-17.1,11.9-27.48,14.45-33.44,8.19-66.81,16.68-100.33,24.56a50.47,50.47,0,0,1-30.48-2.16c-15.34-6.09-23.83-22.75-21.67-40.44,2.65-21.74,13.93-38.13,30.37-51.54,24-19.54,51.81-27.93,82.39-28.44A113.38,113.38,0,0,1,462.57,155a45.44,45.44,0,0,1,21.53,18.13,9.83,9.83,0,0,1-1.69-1c-20.25-17.89-44.72-23.15-70.63-22.09-40.06,1.65-67.23,23.57-85.28,57.86-5.51,10.47-6.84,22.31-4.59,34.09,2.37,12.37,12,19.5,26,20.67,11.32,1,21.65-3,32.27-5.56,28.79-6.91,57.58-13.77,86.31-20.92,11.81-2.94,20.25-10.44,25.75-21.26C492.92,213.66,493.46,212.28,494.05,210.93Z"/><path d="M299.37,240.61c-.81,1.51-1.41,4.15-2.47,4.35-14,2.61-27.43,7.92-42.16,6.74C232,249.87,217.35,233,220,210.44c2.14-18.36,9.27-34.08,24.16-46,27.79-22.17,58.83-35.55,94.78-35.66a86.2,86.2,0,0,1,42.68,11c-5.35,2.25-9.49,2.78-14.76,1.14-28.24-8.81-55.28-4.05-81.17,9-15.11,7.61-27.39,18.68-37.62,32.19-8,10.62-11,22.65-10.76,35.58.31,15.95,9.7,25.28,25.66,27,11.12,1.22,21.38-2.35,31.93-4.49l2.89-.59Z"/></svg>