<svg id="Слой_1" data-name="Слой 1" xmlns="http://www.w3.org/2000/svg" viewBox="0 0 495.92 374.85"><defs><style>.cls-1{fill:#fff;}</style></defs><title>kholodnyye zakuski</title><path class="cls-1" d="M.28,374.85V335.48c8-.9,15.51-3.75,19.46-11.07a33.42,33.42,0,0,0,4.07-15.53c-.12-11.75-9.61-20.3-23.71-22.28,0-1.65,0-3.41,0-5.16C.09,237,.15,192.47,0,148c0-3.78,1.27-5.46,4.58-7Q156.22,71.16,307.83,1.24a14.32,14.32,0,0,1,8.45-1c43.23,9.48,84.56,23.81,121.35,49.14,20,13.75,37.36,30.08,49,51.78a77.45,77.45,0,0,1,9.3,37.38q-.21,79.23,0,158.46c0,10.33-4.06,18.35-11.77,24.76-8.88,7.39-19.39,10.93-30.71,12-49.42,4.51-98.85,8.84-148.27,13.36-10.76,1-21.45,2.73-32.21,3.69-14.25,1.27-28.55,1.93-42.8,3.17-31.35,2.74-62.69,5.71-94,8.55s-62.7,5.64-94,8.47C28.31,372.24,14.55,373.53.28,374.85Zm287.83-39.58c2.62-.15,4.92-.18,7.2-.42,11.26-1.19,22.5-2.48,33.76-3.64Q388.93,325,448.8,318.9c8.08-.83,15.72-2.79,22.32-7.8,5.9-4.48,9.11-10,9.08-17.83q-.31-78.23-.05-156.45A28.85,28.85,0,0,0,473,117.11c-9.07-10.42-19.74-15.31-34.39-13.48-39,4.87-78.11,8.5-117.18,12.64-6.38.68-12.74,1.5-19.1,2.25,1.86,14.3,1.77,18-.51,24.67-3.32,9.65-10.28,15.73-18,15.7s-15-6.12-17.65-15.95c-1.68-6.28-1.81-13-2.74-20.34L154,134.39c1,2.58,1.79,4.38,2.43,6.23,5.54,16,4.73,31.58-4.51,46-10.55,16.46-29.3,16.33-40,0-6.88-10.48-8.85-22.14-7.37-34.42.48-4,1.59-7.94,2.54-12.54L8.19,150.81v129c19,1.7,30.91,13.35,31.59,30.64a32.21,32.21,0,0,1-7.39,22.25c-6.26,7.67-14.56,11.16-24.53,11.17,0,2.72,0,5,0,7.36,0,8,.05,8.46,8.06,7.94,35.72-2.32,71.46-4.59,107.13-7.51,33.85-2.77,67.64-6.32,101.45-9.56,10.74-1,21.46-2.19,32.17-3.29-1-16.93,4.3-26.59,14.56-27.11C281.05,311.18,287.11,319.41,288.11,335.27Z"/><path class="cls-1" d="M151.91,287.13c-.29,10-2.44,19.81-8.51,28.39-10.71,15.13-28.25,15.07-38.93-.06-11.06-15.65-11.16-40.78-.25-56.55,10.81-15.62,28.81-15.6,39.52.08C149.46,267.38,151.58,276.84,151.91,287.13Z"/><path class="cls-1" d="M328.1,269c.28-8.38,2.4-18.37,8.84-27,10.79-14.47,27.24-14.43,38.09,0,11.78,15.69,11.7,42.58-.17,58.26-10.8,14.26-27.59,14.06-38.1-.45C331.19,292.13,328.05,281.74,328.1,269Z"/><path class="cls-1" d="M431.89,162.65c-.35,8.56-3,16.42-9.71,22.5-8.57,7.78-20.47,7.58-28.88-.36-12-11.39-12.28-33-.5-44.66,9-8.93,22.53-8.6,31.07.78C429.4,147,431.67,154.3,431.89,162.65Z"/><path class="cls-1" d="M60.7,235.06c-.32,7.71-2.31,14.81-7.54,20.69-8.55,9.63-21.78,9.41-30-.43-9.17-10.95-9.42-28.7-.55-39.9s22.85-11,31.6.09C58.73,221.26,60.34,227.95,60.7,235.06Z"/><path class="cls-1" d="M255.92,203.18c-.33,7.56-2,14.76-7,20.85-7.29,9-18.29,9.1-25.73.29-9.49-11.23-9.45-31.55.08-42.71,7.33-8.58,18.17-8.55,25.42.12C253.87,187.9,255.58,195.27,255.92,203.18Z"/><path class="cls-1" d="M215.84,295.67c0,.43,0,1.6-.19,2.75-1.8,12.8-11.25,21.72-21.58,20.38-11.28-1.46-19.61-14.18-17.8-27.17,1.72-12.36,10.46-21,20.59-20.44C207.39,271.8,215.8,282.32,215.84,295.67Z"/><path class="cls-1" d="M439.84,275.08c0,10.68-7.15,19.73-15.67,19.83s-15.85-8.66-16.08-19.44,6.91-20.12,15.68-20.31S439.85,264.09,439.84,275.08Z"/><path class="cls-1" d="M71.84,174.9c0,8.65-5.43,16-11.88,16s-11.88-7.29-11.87-16S53.72,159,60.23,159.16C66.49,159.32,71.81,166.53,71.84,174.9Z"/><path class="cls-1" d="M447.84,199.2c-.09,8.42-5.39,15.54-11.68,15.69-6.49.15-12-7.05-12.07-15.79s5.43-15.93,11.93-15.93S447.93,190.6,447.84,199.2Z"/><path class="cls-1" d="M264.11,230.61c.16-8.46,5.57-15.47,11.91-15.44s11.68,7,11.85,15.52-5.23,16-11.69,16.2S263.94,239.47,264.11,230.61Z"/></svg>