<svg id="Слой_1" data-name="Слой 1" xmlns="http://www.w3.org/2000/svg" viewBox="0 0 496.16 390.52"><defs><style>.cls-1{fill:#fff;}</style></defs><title>konditerskiye-izdeliya</title><path class="cls-1" d="M218.37,151c2.56,6.14-.13,8.45-5.27,11.12-36.29,18.89-72.37,38.19-108.42,57.55a103.54,103.54,0,0,0-14,9.58c-3.6,2.78-3.33,5.49,1,6.91a53,53,0,0,0,14.6,2.71C201.19,242,293.85,229.24,384,199.11a26.42,26.42,0,0,0,4.18-1.6c7.28-3.92,8.61-9,2.71-14.69-5.43-5.27-11.53-10.31-18.22-13.7-11.38-5.77-23.38-10.37-35.27-15.06-6.85-2.7-7-2.34-7.69-10.87,3.29,1,6.38,1.82,9.41,2.82a179.49,179.49,0,0,1,41,19.11c19.67,12.55,31.31,29.7,30.75,53.61-.57,24.29-1.74,48.57-2.5,72.85-.19,6.05-3.42,9.28-8.67,11.46a581,581,0,0,1-93,29.74,583.14,583.14,0,0,1-153.66,14.79c-18.6-.71-37.14-3.12-55.69-4.92-5.62-.55-8.52-3.2-9.12-8.89-1.75-16.55-3.33-33.13-4.63-49.72s-2.08-33.24-3.33-49.85c-.36-4.79,1-8.65,4.63-11.48,4.58-3.57,9.35-6.93,14.24-10,37.29-23.76,76.95-43,117.25-61C217,151.45,217.64,151.27,218.37,151Zm184.22,90.17c-100.31,38.15-204,50.25-311.28,37.85.53,7.17,1.17,13.92,1.45,20.68.12,3,1.32,4.07,4.15,4.3,19.74,1.61,39.44,4.06,59.22,4.81,45,1.72,89.86-.68,134.31-8.72,37.47-6.78,73.79-17.22,108.44-33.15,1.46-.67,3.5-2.23,3.55-3.45C402.76,256.09,402.59,248.67,402.59,241.17Z"/><path class="cls-1" d="M264.43,120.46c-.42-13.2-3.61-25.89-7.74-38.37-7.58-22.94-21.85-41.34-39.54-57.28-6.18-5.57-12.85-10.57-19.21-16-2.68-2.27-5.11-4.83-7.66-7.27l.9-1.59c1.63.26,3.45.13,4.84.85a75.31,75.31,0,0,1,10.29,6.06c33.31,24.38,53.61,57.2,62.68,97.22,1.28,5.67,2.36,11.38,3.57,17.23,4.17-.85,8.28-2,12.47-2.5,17.65-2.08,26.68,4,31.27,21.11,4.82,18-1.44,32.76-14.13,45.24-12,11.76-26.53,13.36-41.75,8.52-21.52-6.84-35.52-35.42-27.93-56.6,3.7-10.31,11.68-16.52,22.35-18.61C257.57,118,260.72,119.64,264.43,120.46Zm39.82,22.4c0-5.24-3.59-9.82-7.85-9.95-4.43-.14-8.24,4.5-8.27,10.07,0,5.23,3.59,9.82,7.85,10S304.22,148.39,304.25,142.86Z"/><path class="cls-1" d="M72,255.13c-2.24.87-4.47,1.77-6.72,2.61-13.77,5.13-27.13,11.11-38.88,20.1A69.12,69.12,0,0,0,16.53,287c-11.33,12.87-11.05,27.7.5,40.43,9.38,10.34,21.24,17,33.74,22.71,26.72,12.12,55,18.88,83.77,23.76A678.21,678.21,0,0,0,269,382.67c50.07-1.54,99.63-6.91,147.76-21.67,17.87-5.48,35.3-12.15,50.6-23.18A72.93,72.93,0,0,0,481.17,325c9.42-11.57,9.43-24.22.72-36.32-6.8-9.44-16-16.18-26.35-20.9-11.62-5.29-23.74-9.46-35.62-14.18a28.89,28.89,0,0,1-4-2.34l1.06-2.12c10.46,3.6,21,6.88,31.34,10.87,12.94,5,25.22,11.34,35.41,21.05,15.6,14.88,16.54,33.81,2.49,50.3-10.42,12.23-24,19.92-38.42,26.3-27.89,12.36-57.37,19.13-87.31,24.06a676.57,676.57,0,0,1-119.94,8.75c-53.6-.77-106.7-5.87-158.48-20.7C63.35,364.37,44.84,358,28.67,346.82c-7.82-5.4-15.39-11.91-21.17-19.39-11.6-15-9.48-31.2,4.46-44.22,11.41-10.65,25.28-17.14,39.67-22.58,6.56-2.47,13.27-4.54,19.91-6.8Z"/></svg>