<svg id="Слой_1" data-name="Слой 1" xmlns="http://www.w3.org/2000/svg" viewBox="0 0 405.58 498.11"><defs><style>.cls-1{fill:#fff;}</style></defs><title>morozhenoye</title><path class="cls-1" d="M84.25,445.68c5.77-4.42,10.09-8.62,15.17-11.45,14.17-7.89,29.89-11,45.73-13.37,8.39-1.25,16.85-2.11,25.31-2.75,3.16-.24,5.17-1.36,5.8-4.27,1.84-8.42,4.89-16.88,4.9-25.34,0-17.43-1.36-34.89-2.75-52.29-.28-3.51-2.68-7.19-5-10.14-19.22-24.85-41.11-47.32-64.17-68.51-34.22-31.44-69.06-62.22-104-92.89-6.79-6-6.85-10.13-1.46-17.44C10,138.87,19.33,135,28.94,131.36c1.6,5.42.43,8.84-4.81,11.26-3.91,1.81-8.2,3.94-8.84,9.33-.54,4.48,1,7.22,5.44,8.65a354.4,354.4,0,0,0,58.84,13.16,873,873,0,0,0,139.53,8c54.57-1.14,108.73-5.71,161.48-20.91,4.31-1.24,8.51-2.83,12.74-4.34,3.35-1.19,4.08-3.48,1.71-6.07-4-4.4-8.27-8.62-12.58-12.75-1.76-1.68-3.94-2.93-5.74-4.64a61.71,61.71,0,0,1,27.37,18.06c2.79,3.16,1.32,6.9-1.76,8.59-18.51,10.11-32.82,25.46-48.53,39-39,33.58-77.31,68-112.06,106.16-.22.25-.43.52-.67.74-19.49,17.62-25.07,40.87-26.48,65.74a115.24,115.24,0,0,0,4.12,39.54c1.64,5.54,4.33,7.86,10.45,8,18.89.39,37.56,3.11,55.2,10.15a96.57,96.57,0,0,1,21.17,11.92c10.89,8,12.14,24.82-1.27,33.83-12.7,8.53-26.85,13.25-41.55,16.33-47.52,9.95-95,10.07-141.81-3.66-10-2.94-19.53-8.29-28.62-13.66-8.73-5.16-10-13.86-7.48-24,10.7,23.06,31.29,30.23,53.15,35,23.43,5.13,47.21,5.39,71.07,3.35q-17.71-2.21-35.41-4.42c-1.65-.21-3.28-.58-4.91-.86-8.26-1.42-9.1-2-6.36-9.84,2.55-7.26,6.48-14,9.49-20.36a20.8,20.8,0,0,0-2.3,1.48c-8.35,6.35-16.79,12.6-25,19.18-2.94,2.37-5.51,3.15-9,1.5-3-1.41-6.2-2.31-10.07-3.71,8.54-20.63,27.17-28.3,44.87-37.26-22.9,6.9-46.67,11.43-67.61,26.19ZM386,168l-.51-.87c-8.78,2.45-17.59,4.82-26.33,7.41a13,13,0,0,0-4.56,2.79c-14.32,12.46-28.29,25.35-42.94,37.42-24.31,20-49.83,38.3-77.47,53.71-24.91,13.89-48.13,12.64-71.94-2.39-37.67-23.79-70.21-53.3-99.63-86.5-1.06-1.19-2.27-2.69-3.67-3.06-9.07-2.4-18.22-4.53-28.78-7.1,2.44,2.23,3.74,3.47,5.1,4.64,36.65,31.74,73.18,63.61,107.09,98.35A53.66,53.66,0,0,0,155,281.88c36.16,19.59,83.51,13.58,114.77-13.9,26.65-23.43,53.57-46.55,80.44-69.72C362.08,188.05,374.08,178.05,386,168ZM167.74,248.85l.78-.56c-.49-1.53-.94-3.08-1.49-4.6-5.11-14.21-10.72-28.26-15.18-42.67-2.63-8.5-6.13-13.22-16.06-13.33-11-.13-22-2.53-34.49-4.14Zm24.16,138h-.38c0-8.15.24-16.31-.08-24.45a147.27,147.27,0,0,0-2-18.75c-.26-1.53-2.66-2.7-4.08-4-.52,1.7-1.52,3.41-1.5,5.11.31,28.3.68,56.61,1.27,84.9.06,2.82,1.59,5.61,2.43,8.42,1.44-2.76,4-5.49,4.12-8.29C192.13,415.49,191.9,401.18,191.9,386.87Zm-7.13-152.69,1.2-.08,6.54-42.47H165.44ZM171.84,305.3c3.81,4.37,7.08,9.44,11.59,12.89a29.38,29.38,0,0,0,13.83,5.74c9.79,1.11,22.67-7,27.55-16.06C199.58,313.37,199.25,313.35,171.84,305.3Zm6.32,133.28c4.31,8.13,11.31,9,18.91,8,10-1.39,15.77-4.92,17.4-11.31C202.7,445,190.68,444.4,178.16,438.59Z"/><path class="cls-1" d="M131.87,70.74c5.59-33.07,32.7-54,62.05-56.5,32.17-2.69,55.66,11.58,72.09,38.21,5.53,9,9.14,19.12,13.9,29.32,26-.79,50.15,6,68.27,27.49,12.1,14.32,16.87,31.36,17.28,50.48-8.83,1.22-17.33,2.81-25.89,3.5-43.64,3.51-87.25,8-131,9.82a661.13,661.13,0,0,1-135.41-8.55C64,163,55,160.45,45.83,158.89c-4.66-.79-6.39-3.38-7.17-7.5-2.37-12.57-.23-24.67,4.81-36.09,11.73-26.62,33.27-40.43,61.34-44.37C113.6,69.7,122.69,70.74,131.87,70.74Zm101.28,36.81c-.71-1.4-.94-2-1.27-2.49A58.31,58.31,0,0,0,166.69,80c-28.12,7.8-47.22,32.52-46.06,59.62.69,16.2,3.63,20.54,16.07,23.75a4,4,0,0,0,.73,0c2.2-22.78,14.12-39.34,33.52-50.69S211.14,100.13,233.14,107.55Zm-7.22,52.05c6.24.6,12.19,1.4,18.17,1.58a6.41,6.41,0,0,0,4.7-2.84c2.68-4.58,4.5-9.67,7.23-14.21,10-16.57,24-27,44-27.63,12.44-.42,24,2.76,35.2,8,1.53.72,3.08,1.38,5.54,2.48-18.13-25.16-47-34.59-72.91-24.58C242.4,112.21,223.45,137.85,225.93,159.6ZM140,81.41c6.3-2.78,12-5.26,17.65-7.83.54-.25.87-1,1.27-1.52,17.52-23.5,41.57-30.28,69.41-26.66,8,1,15.83,3.33,24.18,5.14a26.67,26.67,0,0,0-2.64-3.07c-4.18-3.55-8.18-7.39-12.7-10.46C206.47,16.14,166,24.64,146.23,56,141.53,63.45,138.68,71.41,140,81.41ZM77.47,151.79c.62-29.29,12.21-51.05,39-63.54C90.15,76.49,51.8,108.68,50,143.91Zm28.43-12.22c-7-.11-12.44,4.35-12.39,10.19,0,5.63,5.32,10,12.06,10s12-4.32,12.15-9.95S112.61,139.68,105.9,139.57ZM249.52,85.43a10,10,0,0,0,9.84,10.35,10.06,10.06,0,0,0,10.35-9.89,10.1,10.1,0,0,0-20.19-.46Z"/><path class="cls-1" d="M385.89,14.5c-3-3.49-4.36-1.39-5.89.92Q358.8,47.5,337.51,79.51c-1,1.54-2.22,3-3.33,4.43l-1.35-.8a16.35,16.35,0,0,1,1.27-3Q357,46.19,380,12.29c2.09-3.1,4.34-3.87,7.5-1.81,1,.64,2,1.18,3,1.78,5.06,3.06,5.35,4.17,2.09,9Q380,39.85,367.33,58.42L345.22,90.94l-6.93-5Z"/><path class="cls-1" d="M290.69,71.39l16.39-54.05c1.06-3.5,2.31-6.95,3.11-10.5.29-1.27-.48-2.77-.77-4.17-1.17,1-3,1.76-3.4,3-5.63,17.9-11.07,35.87-16.56,53.81-1,3.32-2.08,6.62-3.12,9.92l-1.4-.14c.14-2.43-.19-5,.49-7.27,5.69-19.1,11.67-38.12,17.3-57.23C304,.28,306.85-.4,310.6.17c1.79.27,3.84.59,5.16,1.65s3.11,3.45,2.75,4.69c-6.37,21.81-13,43.54-19.71,65.5Z"/></svg>