<svg id="Слой_1" data-name="Слой 1" xmlns="http://www.w3.org/2000/svg" viewBox="0 0 512 341"><defs><style>.cls-1{fill:#fff;}</style></defs><title>pancake</title><path class="cls-1" d="M235,0h42a35,35,0,0,0,3.88.77c12.93,1.13,25.93,1.77,38.8,3.38,35.16,4.39,69.43,12.42,101.85,27.1,18.78,8.5,36.54,18.68,50,34.82,10,12,13.28,25.44,7.52,40.53a8.5,8.5,0,0,0-.06,5.58,38.2,38.2,0,0,1,0,28.74,7.86,7.86,0,0,0-.15,5.13c2.74,7.52,3.94,15.08,2.15,23a4.81,4.81,0,0,0,1.34,4.08C497.27,184,508,197.61,512,216v14a6.61,6.61,0,0,0-.82,1.75c-2.75,19.38-12,35.38-25.54,49.13-19,19.39-42.8,30.69-68.13,39.06C383,331.32,347.37,336.4,311.29,339L283,341H233a38.87,38.87,0,0,0-3.88-.74c-19.71-1.78-39.52-2.86-59.13-5.43-34-4.44-66.92-13-97.95-27.87C51,296.84,31.89,284.06,17,265.66,8.23,254.83,3,242.44,0,229V216c3.82-18.41,14.31-32.22,29.32-43,1.16-.83,1.83-3.47,1.51-5-1.53-7.48-.22-14.52,2.2-21.57a8.73,8.73,0,0,0,0-5.58,37.65,37.65,0,0,1-.1-28.24,8.51,8.51,0,0,0,.17-5.58c-5.89-15.23-2.63-28.78,7.44-41C50.87,53.43,64.16,44.54,78.44,37.16,120.23,15.56,165.31,6.31,211.69,2,219.46,1.32,227.23.68,235,0Zm12.69,191.27h.09c0,5-.15,10,0,15,.29,7.64,4.84,11.75,12.57,11.65s12.19-4.29,12.7-11.83c.12-1.78.19-3.78,1-5.24,1.95-3.4,5.09-5.54,9.11-4.47s6.85,3.79,6.91,8.57c.15,11.14-.13,22.33.86,33.41.82,9.15,8,14.18,17.14,13.52,9.74-.71,15.56-6.46,15.93-15.77.25-6.26,4-10.3,9.2-10,5.44.28,8.86,5,8.3,11.43-.61,7,2.24,10,9.09,9.69,5.94-.31,7.82-3,7.78-10.85q-.16-35.48-.26-71c0-7.18,2-9.61,9.17-11.39,22.77-5.68,45.15-12.47,65.69-24.16,10.93-6.22,20.95-13.5,27.84-24.46,5.36-8.53,6.17-17.33-.1-25.09a108.73,108.73,0,0,0-20-19.31c-19.59-14.35-42.1-22.74-65.35-29-65.88-17.64-132.54-19.1-199.62-8.58-30,4.71-59.22,12.63-86.48,26.51-14,7.15-27.11,15.64-37,28.3-6,7.72-7.46,16.27-2.66,24.69a64.58,64.58,0,0,0,12.62,15.29c12.23,11.15,27,18.11,42.34,23.93C147.13,158.26,191.5,164,236.53,166c8.14.36,11.09,3.09,11.15,11.25C247.71,181.93,247.69,186.6,247.69,191.27Zm-218,3.19C21.66,202,17.26,210.34,17,220.53c-.37,16.48,6.78,30,17.49,41.78C49.64,279,68.77,289.69,89.33,298c40.67,16.37,83.44,22.37,126.83,24.94a730.36,730.36,0,0,0,95.92-.82c30.79-2.22,61.28-6.37,91-15.15,24.62-7.28,48-17.22,67.5-34.48,15.29-13.52,24.64-30.06,24.44-51-.1-10.51-4.6-19-12.79-26.58-.9,13.48-6.92,23.55-15.59,32.29-13.38,13.49-29.68,22.44-46.95,29.71C374,276,325.86,283.67,276.78,285.66c-48.44,2-96.41-2.22-143.4-14.82-26.44-7.09-52.07-16.3-74.58-32.37C43.85,227.8,31.29,215.22,29.72,194.46ZM293.9,267.21c-4.64-4.24-9.49-8.22-13.76-12.75-2-2.15-3.74-3.08-6.73-3-47,1.47-93.5-2.59-139.05-14.69-31.07-8.25-60.93-19.3-85.86-40.65-.18-.15-.59,0-1.17,0,1,11.81,8,19.82,16.56,26.74C80,236,98.95,243.8,118.54,249.84c56,17.28,113.52,21,171.7,18.06A23.15,23.15,0,0,0,293.9,267.21ZM254.2,235.38c-11.77-6.82-14.9-8.89-18.56-14.89-1.73-2.83-3.72-3.52-6.83-3.69-33-1.73-65.64-6.16-97.54-15-26.58-7.38-52.26-16.9-74.75-33.48-3-2.24-5.93-4.69-9.42-7.45a31.65,31.65,0,0,0,.34,4.1c2.45,10.39,8.87,18.06,17,24.52,12,9.54,25.62,16.1,39.84,21.47C138.36,223.81,173.86,230,210,233,224.7,234.16,239.47,234.59,254.2,235.38ZM47.42,127.74C48,137,53.33,146,62.65,153.67c17.86,14.68,39,22.78,60.72,29.36,33.66,10.17,68.27,14.73,103.25,16.85a20.25,20.25,0,0,0,3.28-.32V183.12c-1.2-.1-2.15-.19-3.11-.25-31.08-1.92-61.86-6-92-14-27.6-7.33-54.31-16.79-77.78-33.69C53.83,132.93,50.83,130.41,47.42,127.74ZM369,256.58c26.13-6.42,52.78-14.43,75.68-31.26,5.91-4.34,10.89-10.22,15.4-16.09,2.6-3.39,3.4-8.16,5.46-13.48-9.44,6.39-17.12,12.19-25.36,17-18.9,11.13-39.49,18.2-60.53,24.1-1.64.46-3.72,1.68-4.34,3.09C373,245.48,371.05,251.19,369,256.58Zm96-95.36a29,29,0,0,0-2.85,1.9,132.25,132.25,0,0,1-38.45,23.73c-14.46,5.79-29.38,10.45-44.06,15.71-1.54.55-4,1.68-4.07,2.71-.43,4.83-.19,9.73-.19,15.13,18.8-4.86,36.46-10.29,52.6-19.29a173,173,0,0,0,26.75-18.86C460.72,177.24,464.23,170,465,161.23Zm.92-31.92-1.48-.79c-7.51,5.13-14.78,10.65-22.57,15.3-19.37,11.57-40.55,18.8-62.16,24.88-1.48.42-3.72,1.74-3.82,2.81-.42,4.67-.18,9.39-.18,14.59,23.28-6.34,45.23-13.46,64.7-26.38a79.59,79.59,0,0,0,16.46-14.32C460.82,140.81,463,134.73,465.94,129.31ZM332.7,256.92l-8.47,7.68,15.67-2.27Z"/><path class="cls-1" d="M196.41,106.18a57.94,57.94,0,0,1-1,6,27.18,27.18,0,0,1-25.56,20.17c-7.82.19-15.66.16-23.48,0-15.29-.27-26.59-11.68-26.83-27-.12-7.66-.16-15.32,0-23A26.77,26.77,0,0,1,146.5,56c10.62,0,21.24,0,32.42,0,.19-.92.54-3,1-5,2.71-11.44,13.48-20.35,25.22-20.63,8.16-.19,16.32-.17,24.48,0A27.1,27.1,0,0,1,255.92,57q.09,11.74,0,23.48c-.09,14.23-12.21,26.33-26.49,26.47-5.5.05-11,.12-16.49,0S202.06,106.44,196.41,106.18ZM217.82,90v0h12c.33,0,.67,0,1,0,5.49-.33,8-2.61,8.14-8,.18-8.82.17-17.65,0-26.47-.08-5.51-2.43-8.11-7.88-8.27-9-.26-18-.25-27,0-5.22.12-7.83,2.61-7.93,7.74q-.27,13.72.27,27.45C196.7,88,199,89.85,204.84,90,209.16,90.11,213.49,90,217.82,90Zm-38.64,3.79h-.12c0-4.33.07-8.65,0-13-.11-5.52-2.37-7.87-7.94-7.95q-13.23-.17-26.46,0c-5.4.07-7.91,2.18-8,7.39-.25,9.31-.16,18.63,0,27.95.07,4.56,2.73,7.11,7.28,7.17,9.31.13,18.64.26,27.94,0,5.24-.16,7.21-2.65,7.35-8.1C179.27,102.8,179.18,98.3,179.18,93.81Z"/><path class="cls-1" d="M301.5,142.92H288.65c-6.67,0-10.65-3.25-10.57-8.58.08-5.14,3.89-8.24,10.32-8.3,29.9-.27,59.6-2.62,88.37-11.16a191,191,0,0,0,32.14-13.29c8.78-4.48,15.54-11.32,16.24-22.37.28-4.39,4.65-6.89,9.24-6.32s7.5,4.36,7.2,9.23c-.48,7.83-3.92,14.35-9.15,20-7.82,8.48-17.51,14.24-27.86,19C382,131.56,358,136.83,333.47,139.89,322.91,141.21,312.27,141.92,301.5,142.92Z"/></svg>