<svg id="Слой_1" data-name="Слой 1" xmlns="http://www.w3.org/2000/svg" viewBox="0 0 998.42 789.98"><defs><style>.cls-1{fill:#fff;}</style></defs><title>pervyye-blyuda</title><path class="cls-1" d="M971.53,246.51c-7.84,17.51-22,28.46-39,35.47-6.8,2.8-9.61,5.94-10.64,13.24-7.62,54-6.54,108.27-2.95,162.43,5,75.9,12.06,151.67,16.37,227.6,1.37,24.06-2.48,48.56-5.5,72.66-1.1,8.76-5.88,17.48-10.58,25.25-5.32,8.8-14,9.11-19.42.74-6.22-9.68-11.79-20.54-14.41-31.66-9.58-40.62-6.74-81.9-3.86-123,5.93-84.68,12.82-169.31,17.63-254.05,1.47-25.84-2.51-52-4.16-78-.5-7.81-3.27-13-11.6-17.09-35.33-17.23-50.56-49.56-57.84-85.54C814.91,141.9,823.75,91.61,850.47,45A128.74,128.74,0,0,1,872.14,17.3c23.49-22.93,50.9-23,75.26-.74,18.85,17.19,30.07,39.29,38,63,14,41.54,18,83.76,5.43,126.41-3,10.19-8.24,19.73-12.44,29.57-3.8,2.66-8,4.94-11.36,8.05-44.8,41-79.95,38.35-114.37-5.31q-2.34-3-4.58-6a60.28,60.28,0,0,1-3.59-5.18,49.41,49.41,0,0,1-2.22-4.87l-2.74,2.93c12.21,31.59,35.69,51.12,68.08,61-.37,8.25-.82,15.79-1,23.34-2.46,90.83-.92,181.54,7.72,272.08,4.83,50.65,9,101.39,3.38,152.29-1.47,13.37-3.67,26.66-5.73,41.47,12.9-5.54,15.51-16.1,15.84-25.54,1.24-36.44,3.25-73.06,1-109.37-4.26-67.91-13.36-135.54-16.51-203.47-2.21-47.7,2-95.7,3.72-143.55.13-3.52,2.64-9.17,5.28-10C942.21,276.57,957,261.73,971.53,246.51ZM842.28,216.72c16.08,24.91,30,46.92,61,44.37,34.57-2.85,57.46-23.2,70.8-53.32,25.8-58.24,14.56-113.87-15.67-167.29-.2-.35-1.18-.25.54.06,2.17,24.84,6.63,50.22,6.07,75.49-.78,35.63-11.35,68.76-38.25,94.41-14.56,13.89-31.4,20.67-51.82,14.82C865.33,222.51,855.63,220.2,842.28,216.72Z"/><path class="cls-1" d="M476,16.72C607,48.43,758.52,187,755.9,392.3c-2.53,198.76-155.06,367-346.1,383.07C194.26,793.47,38.67,641.6,0,496.42c32.19,88.24,87.34,157.75,168.72,205.06,81.89,47.61,170,61.56,262.76,43.71C586.76,715.31,707.85,586.14,731.1,429.06,754.63,270.1,665.51,77.7,476,16.72Z"/><path class="cls-1" d="M450.59,26.1C588,58,728.48,196.26,720.58,394.76,713,585.83,554.47,741.66,364.11,745,156.41,748.69,27,592.13,3,476.7c9.94,20.73,19.49,45.92,33.26,68.54,74.62,122.59,184.39,186.65,327.88,186.85,173.28.23,320.84-132.51,342.31-303.77,21.61-172.39-78.3-336.43-241.84-397.1C461.14,29.92,457.64,28.66,450.59,26.1Z"/><path class="cls-1" d="M208.9,549.34c-68.44-59.4-100.19-173.48-47.75-274,49.35-94.64,161.47-143.38,264.52-114.86,105,29.07,181,129.93,167.89,247,5.59-124.84-78.85-210.12-166.88-232.85-94.28-24.34-193.61,14.37-246,96.34C128.67,352.38,130.94,464.16,208.9,549.34Z"/><circle class="cls-1" cx="369.91" cy="390.77" r="221.5"/></svg>