<svg id="Слой_1" data-name="Слой 1" xmlns="http://www.w3.org/2000/svg" viewBox="0 0 419.28 316.76"><defs><style>.cls-1{fill:#fff;}</style></defs><title>salaty</title><path class="cls-1" d="M6.59,5C7,12.14,7.41,19.27,7.72,26.4q1.08,25.22,2,50.44c.1,2.67.31,4.76,4.47,3.38L17,6.65l.57,0L21.52,80.1c4.17,1.74,4.4-.52,4.52-3.42q1.37-34.21,2.9-68.41a3.19,3.19,0,0,1,1-2.41L33.51,80c4.09,1.88,4.39-.35,4.48-3.27q1-33.23,2-66.45c.06-1.83.3-3.66.45-5.49l2.06-.12c.34,2.51.88,5,1,7.54.89,20,2,39.94,2.41,59.93A261.35,261.35,0,0,1,44.75,103c-.83,8.66-5.29,15.23-13.95,18.5-1.35.51-2.65,2.8-2.88,4.42-3.13,22.58-2.2,45.21-.54,67.83,2.1,28.72,4.68,57.41,6.17,86.17.47,9.16-1.34,18.57-3.21,27.64-.73,3.54-4.13,8.66-7,9.16-4.73.83-6.74-4.68-8.1-8.72-5-14.82-4.76-30.18-3.69-45.5,2.5-35.53,5.44-71,7.65-106.59.59-9.58-.84-19.28-1.29-28.92-.17-3.58-1.51-5.92-5-7.77C5.21,115,2.37,107.45,1.15,99.33A86.14,86.14,0,0,1,.06,82.92C1.11,58.29,2.46,33.67,3.77,9a23,23,0,0,1,1.11-4.4ZM24.08,309.86l1.61,1.06c1.44-2.54,3.76-5,4.14-7.66,1.15-8,2.55-16.24,2-24.26-1.67-26.06-5-52-6.05-78.11-1-24.74.12-49.57.4-74.36.07-5.9,1.26-10.84,7.67-14,3.23-1.58,5.7-6.12,7-9.85,1.88-5.39,2.39-11.25,3.48-16.91-2.89,6.8-5.06,13.7-7.53,20.5-1.64,4.51-4.72,6.82-10,6.33-4.89-.46-9.86-.1-14.9-.1,1.07,5.51,1.79,6,11,7.75-.09,1.26-.29,2.56-.28,3.85.39,34.27-.32,68.61,1.55,102.8C25.8,254.65,29.88,282.21,24.08,309.86Z"/><path class="cls-1" d="M63.33,199.06C86.81,266.3,151.87,306.79,221,299.6c63.92-6.65,117-54.71,130-118.06,7.6-37,2.12-72.27-16.87-105.05S287.28,21.8,251.78,9.17C306,22.44,365.84,79.39,362.55,161.84c-3.12,78.12-62.2,141-137.52,147.53C138.22,316.86,77.68,254.23,63.33,199.06Z"/><path class="cls-1" d="M243.44,13c63.51,16.56,110.21,78.28,105,149.59-5.46,74.3-66.15,134.55-143.77,134.8C125,297.67,74.58,237.75,64.36,189.68c12.3,35.41,34.09,63.24,66.43,82.25s67.46,25.31,104.37,17.25c59.65-13,103.42-62.76,108.72-122.48C350,97.27,306.5,34.51,243.44,13Z"/><path class="cls-1" d="M298.39,163.75c2.23-48.88-30.65-83-66.09-92.21a89.05,89.05,0,0,0-97.67,38.57c-20.29,32.1-19.36,76.21,11.56,109.65-21.56-16.53-38.63-57.85-23.91-97.39A91.2,91.2,0,0,1,228,65C272.11,75,303.73,116.38,298.39,163.75Z"/><path class="cls-1" d="M413.07,164.17c-15.06.9-12.07,1.18-14.2-10.2-4.89-26.16-9-52.42-10.23-79.09-1.07-23.13,5.56-44.34,14.67-65a30.41,30.41,0,0,1,6.39-8.77c1.08-1.09,3.74-1.3,5.4-.85.94.25,1.85,2.65,1.84,4.08-.16,25.79-.24,51.59-.8,77.38-.48,22.13-1.54,44.25-2.36,66.37C413.57,153.35,413.31,158.66,413.07,164.17Z"/><path class="cls-1" d="M410.75,168.63a11.65,11.65,0,0,1,1,2.79c2.59,33,5.53,66,7.45,99.12.62,10.67-1.42,21.5-2.38,32.25a9.1,9.1,0,0,1-1.58,4.68c-2.06,2.58-4.54,4.82-6.85,7.2-2.38-2.35-5.77-4.28-7-7.13-5.65-13.37-5.84-27.66-4.85-41.79,2-29.06,4.68-58.08,7.06-87.12.27-3.24.45-6.48.67-9.72l1.4-.28A19.73,19.73,0,0,1,407,173c1.86,29.58,3.73,59.16,5.4,88.75.86,15.17.5,30.31-2.88,45.23-.13.59-.16,1.21-.24,1.81l1.16.8c1.41-1.73,3.44-3.25,4.1-5.23a49.6,49.6,0,0,0,2.42-11.67c1.58-20.39-1.34-40.53-3.35-60.76-2-20-3.07-40.17-4.52-60.27a14.6,14.6,0,0,1,.32-2.77Z"/><path class="cls-1" d="M417.2,152.29V106.2h.36v45.89Z"/><path class="cls-1" d="M209.18,82.84,207,81c1.52-.31,2.64-.84,3.66-.69,3.9.56,7.94,7.63,7,12-1,4.55-5.51,7.12-10.48,5.76-3.94-1.07-5.54-4-5.34-7.91.16-3,.3-6.13,4.8-5.73C207.42,84.45,208.29,83.41,209.18,82.84Z"/><path class="cls-1" d="M169.61,194.28c-5,0-7.86-3.05-7.78-8.21.07-4.73,3.1-7.75,7.79-7.78a7.73,7.73,0,0,1,8.2,8C177.84,191.15,174.57,194.32,169.61,194.28Z"/><path class="cls-1" d="M153.9,202.25c-5,.07-8-2.68-8-7.38-.1-5.4,2.9-8.62,8-8.57a7.65,7.65,0,0,1,8,7.75C162,198.92,158.83,202.18,153.9,202.25Z"/><path class="cls-1" d="M161.8,178.25c-5.12,0-8.08-3-8-8a8.17,8.17,0,0,1,8.11-8c4.76.08,8,3.52,7.89,8.38C169.7,175.28,166.57,178.25,161.8,178.25Z"/><path class="cls-1" d="M169.88,114.27c-5.11.06-8.06-2.87-8.05-8,0-4.49,3.75-7.25,9.84-7.21,4.62,0,5.82,3.28,6.1,7C178.15,110.91,174.83,114.22,169.88,114.27Z"/><path class="cls-1" d="M225.22,107.11c-2.16-1.51-5.3-2.57-6.23-4.64-1.08-2.37-.57-5.69-.06-8.47.33-1.8,9.68-4.07,11-2.4,1.88,2.32,3.59,5.64,3.5,8.48C233.34,104.13,230.12,106.33,225.22,107.11Z"/><path class="cls-1" d="M193.5,114.25c-5-.07-7.81-3.08-7.67-8.28.12-4.37,3.51-6.73,9.69-6.74,3.95,0,6.32,2.72,6.28,7.21C201.76,111.29,198.54,114.31,193.5,114.25Z"/><path class="cls-1" d="M177.73,130.25c-5.08,0-7.94-2.9-7.89-8,0-2.86,6.69-7.46,11-7,3.76.42,4.81,3.63,4.91,7C185.92,127.11,182.71,130.23,177.73,130.25Z"/><path class="cls-1" d="M161.66,138.25c-5.08,0-8-3.11-7.86-8.17.07-2.25,7-7.37,10.23-7.55,2.68-.15,5.73,3.94,5.78,7.75C169.87,135.17,166.67,138.3,161.66,138.25Z"/><path class="cls-1" d="M205.23,115.75l.87,2.4c.53-.22,1-.37,1.4-.59,5.38-2.84,7.86-2.51,9.58,1.29,2,4.43-.08,9.76-4.34,11.12-4.87,1.56-10.11-.76-10.58-5.28-.31-2.94.83-6,1.32-9.05Z"/><path class="cls-1" d="M197.44,131.45l-.34,3.62,9.15-3.49c4.25,4.06,4.72,9.21,1.24,12.63-3,2.92-9,2.83-11.75-.19C192.68,140.7,193.26,135.4,197.44,131.45Z"/><rect class="cls-1" x="184.63" y="153.81" width="22.51" height="18.67" rx="2.63" ry="2.63" transform="translate(-33.98 52.92) rotate(-14.17)"/><rect class="cls-1" x="236.26" y="123.32" width="31.44" height="15.08" rx="2.8" ry="2.8" transform="translate(478.52 -40.3) rotate(115.48)"/><rect class="cls-1" x="214.56" y="131.94" width="18.67" height="18.67" rx="2.45" ry="2.45" transform="translate(175.3 401.51) rotate(-111.67)"/><rect class="cls-1" x="223.29" y="159.52" width="30.59" height="14.75" rx="2.72" ry="2.72" transform="translate(30.06 -36.31) rotate(9.29)"/><rect class="cls-1" x="201.95" y="181.07" width="29.56" height="14.25" rx="2.66" ry="2.66" transform="translate(123.13 -83.15) rotate(30)"/></svg>