<svg id="Слой_1" data-name="Слой 1" xmlns="http://www.w3.org/2000/svg" viewBox="0 0 488.73 472.15"><defs><style>.cls-1{fill:#fff;}</style></defs><title>salaty</title><path class="cls-1" d="M142.41,323.16a36.91,36.91,0,0,1-5-3.13c-40.24-35-57.06-79-45.83-131.11,11.61-53.9,45-89.91,98.68-104.69s110.34,6.17,143.22,51.37a21.69,21.69,0,0,0,6.31,5.4c19.24,11.67,34.84,26.67,44.1,47.58,5.57,12.58,5.39,24.52-3.71,35.57-4.85,5.9-9.64,11.85-14.6,18l-6.75-11.85-6.67,23.5c1.13-6.72,2.18-13.46,3.43-20.15.58-3.09-.37-5.49-3.14-6.55-6-2.29-12-4.77-18.18-6-2.92-.59-6.38,1.45-9.59,2.3,2.13,2.13,3.95,4.76,6.44,6.29,9.58,5.88,17.62,13,21,24.14-.25,1.12-.12,2.64-.81,3.32q-44.49,43.83-89.14,87.5c-3.79,3.71-7.8,7.2-11.79,10.86-7.6-16.22-26.37-24.21-36.82-15,2.77,1.74,5.26,3.48,7.91,4.92,6.66,3.63,12.76,7.78,16.64,14.63,1.77,3.12,1.63,5.09-1.3,7.57-21.66,18.25-43.16,36.69-64.71,55.06-1.11.95-2.2,1.91-3.45,3,49,14.59,133.13,9.2,195.08-52.28,64.32-63.84,73.18-154.71,47-221.11-8.68,2-17.32,4.26-26.06,6a39.64,39.64,0,0,1-10.44.45c-6-.4-7.75-2.79-6.85-9.17-2.77-.62-5.91-.69-8.3-2.06-2.19-1.26-4.9-3.82-5.07-6-.73-9.23-1.63-18.64-.53-27.76,1.45-12,4.84-23.76,7.08-35.68a7.6,7.6,0,0,0-1.74-5.89,215.4,215.4,0,0,0-95.24-55.3c-1.28-.36-2.57-.69-3.84-1.07-.22-.07-.38-.34-1.24-1.14,40.42,8.16,74.88,26.11,104.91,53.82,1.6-4.39,3.34-8.16,4.23-12.13.3-1.36-1.15-3.6-2.43-4.76A213.6,213.6,0,0,0,292.55,7.79C284.79,5,276.82,2.79,269.09,0c37.79,7.36,71.24,23.84,101.13,48.88,2.14-4.25,3.82-8.36,6.17-12,3.38-5.3,6.77-10.76,11-15.3,4.85-5.15,10.18-3.72,11.09,3.17,1.16,8.82,1,17.87.76,26.8a69.77,69.77,0,0,1-2.67,16.22c-1.43,5.19-.43,9,4.41,12.44,1.14-1,2.37-2.3,3.74-3.39,10.16-8.06,20.15-16.35,30.62-24,3.47-2.53,8.12-3.74,12.42-4.75,3.78-.89,6.44,1.47,5.83,5.36-.71,4.53-1.45,9.51-3.83,13.23-8.33,13-17.37,25.54-26.16,38.24-1.06,1.54-2.22,3-3.34,4.51l.84,1.25c1.71-.56,3.46-1,5.11-1.7,15.69-6.55,31.46-12.82,48.63-14.28a32.92,32.92,0,0,1,7.46.21c6.19.9,8.2,4.68,4.59,9.83-3.12,4.44-6.77,8.9-11.17,11.94-10.79,7.46-22.12,14.13-33.27,21.06-1.81,1.13-3.8,2-5.75,3,2.79,9.83,6.12,19.25,8.12,29,18,87.17-5.36,161.57-70.8,221.86-35.74,32.93-78.87,51-127.16,56.05-39.39,4.16-77.32-2.17-113.7-17.82-2.29-1-4.76-3.09-7.36,1.09l18.7,13c-15.8,10.63-30.19,21.74-47.75,27.26-10.24,3.22-15-.95-12-11.2,3.89-13.36,8.95-26.39,13.59-39.53.82-2.33,2-4.53,3.23-7.1-40.42-26.69-70.13-62.18-88.39-107A201.61,201.61,0,0,1,0,258.56c4,12.35,8.47,26.59,13.23,40.73a96.55,96.55,0,0,0,5.83,12.64L5.15,267.46,6.4,267c16,58,48.87,103.45,100.49,135.08,7.56-13.45,14.94-26.45,22.17-39.54,1.6-2.91,3.19-4.13,6.93-3.8,12.23,1.08,21.79,6.45,29.41,15.91,1.48,1.84,4,2.81,6.1,4.19.27-2.7,1.22-5.54.69-8.07-3.58-17.07-14.19-23.86-35-22.09,3.27-5.33,6.31-10.12,9.17-15a47.5,47.5,0,0,0,2.45-5.8c1.5-1.26,3.4-2.25,4.43-3.81,15.91-24,31.22-48.44,47.67-72.07,20.26-29.11,41.42-57.59,62.3-86.26,1.22-1.67,3.38-3.57,5.24-3.73,16-1.37,30.41,2.26,41.73,14.62,1.68,1.84,4,3.06,6.21,4.67,2.81-6.13.33-14.93-5.92-22.51-9.42-11.42-21.33-13.07-34.72-8.35,11.22-19.61,27.82-22.89,48-15.8a26.52,26.52,0,0,0-4-5.17C287.14,97,247.83,83.63,202.57,91.23c-96,16.13-141.06,128.08-83.35,206.55C126,307,134.64,314.73,142.41,323.16Zm251.93,23.31a213.75,213.75,0,0,0,43.2-114.89,212.36,212.36,0,0,0-10.83-86.06l-9,3.63C441.26,219.1,433.5,284.63,394.33,346.46ZM225.51,247.62l.18,2.64a85.22,85.22,0,0,0,8.92,3.87c13.48,4.17,23.37,12.39,29.42,25.2a32.51,32.51,0,0,0,3.42,5.5c1.53,2,3.14,1.75,4.16-.49A14.71,14.71,0,0,0,272.8,280c2.69-22.06-13.52-38.63-35.49-36C233.29,244.5,229.44,246.39,225.51,247.62Z"/><path class="cls-1" d="M228,117.58l-2.16-1.86c1.52-.31,2.64-.84,3.66-.69,3.9.56,7.94,7.63,7,12-1,4.55-5.51,7.12-10.48,5.76-3.94-1.07-5.54-4-5.34-7.91.16-3,.3-6.13,4.8-5.73C226.27,119.19,227.14,118.15,228,117.58Z"/><path class="cls-1" d="M188.46,229c-5,0-7.86-3.05-7.78-8.21.07-4.73,3.1-7.75,7.79-7.78a7.73,7.73,0,0,1,8.2,8C196.69,225.88,193.41,229.05,188.46,229Z"/><path class="cls-1" d="M172.75,237c-5,.07-8-2.68-8-7.38-.1-5.4,2.9-8.62,8-8.57a7.65,7.65,0,0,1,8,7.75C180.82,233.65,177.68,236.91,172.75,237Z"/><path class="cls-1" d="M180.65,213c-5.12,0-8.08-3-8-8a8.17,8.17,0,0,1,8.11-8c4.76.08,8,3.52,7.89,8.38C188.55,210,185.42,213,180.65,213Z"/><path class="cls-1" d="M188.73,149c-5.11.06-8.06-2.87-8.05-8,0-4.49,3.75-7.25,9.84-7.21,4.62,0,5.82,3.28,6.1,7C197,145.65,193.68,149,188.73,149Z"/><path class="cls-1" d="M244.07,141.84c-2.16-1.51-5.3-2.57-6.23-4.64-1.08-2.37-.57-5.69-.06-8.47.33-1.8,9.68-4.07,11-2.4,1.88,2.32,3.59,5.64,3.5,8.48C252.19,138.87,249,141.06,244.07,141.84Z"/><path class="cls-1" d="M212.35,149c-5-.07-7.81-3.08-7.67-8.28.12-4.37,3.51-6.73,9.69-6.74,3.95,0,6.32,2.72,6.28,7.21C220.61,146,217.39,149,212.35,149Z"/><path class="cls-1" d="M196.58,165c-5.08,0-7.94-2.9-7.89-8,0-2.86,6.69-7.46,11-7,3.76.42,4.81,3.63,4.91,7C204.76,161.85,201.56,165,196.58,165Z"/><path class="cls-1" d="M180.51,173c-5.08,0-8-3.11-7.86-8.17.07-2.25,7-7.37,10.23-7.55,2.68-.15,5.73,3.94,5.78,7.75C188.72,169.9,185.52,173,180.51,173Z"/><path class="cls-1" d="M224.08,150.48l.87,2.4c.53-.22,1-.37,1.4-.59,5.38-2.84,7.86-2.51,9.58,1.29,2,4.43-.08,9.76-4.34,11.12-4.87,1.56-10.11-.76-10.58-5.28-.31-2.94.83-6,1.32-9.05Z"/><path class="cls-1" d="M216.29,166.18l-.34,3.62,9.15-3.49c4.25,4.06,4.72,9.21,1.24,12.63-3,2.92-9,2.83-11.75-.19C211.53,175.44,212.11,170.14,216.29,166.18Z"/></svg>