<svg id="Слой_1" data-name="Слой 1" xmlns="http://www.w3.org/2000/svg" viewBox="0 0 509.38 375.36"><defs><style>.cls-1{fill:#fff;}</style></defs><title>sauceboat</title><path class="cls-1" d="M0,87.23C.47,85.48,1,83.74,1.41,82,6.83,59.62,26.28,44,50.78,42.23c9.94-.71,19.66.21,28.9,4A6.74,6.74,0,0,1,83,50.7c.92,5.22,1.26,10.54,1.89,16.49-3.21-1.29-6-2.47-8.84-3.55-10.73-4.1-21.74-5.17-32.8-1.86C25,67.23,16.06,85.91,23.72,103.58,26.5,110,31,115.91,35.63,121.23c10.21,11.68,23.32,19.59,36.69,27.26,10,5.76,20.17,11.93,28.62,19.7,13.68,12.58,16.55,32.25,9,49.29-5.67,12.85-16.34,19.29-29.46,22.31-9.6,2.21-19.15,2.3-28.46-1.48-15.28-6.21-23.69-23-19.17-38.34,3-10,10.43-15.32,20-14.2,10.08,1.17,17.48,8.52,17.81,17.72.35,9.58-5.9,17.24-15.91,19.48-.78.17-1.56.31-2.49.49,10.76,9,28.76,2.23,32.5-12.13,2.52-9.64.78-18.58-6.7-25.18a115.12,115.12,0,0,0-20-13.89C40.5,162.4,24.54,150.77,13,133.77c-6.56-9.64-10.32-20.34-13-31.54Z"/><path class="cls-1" d="M481.32,61.85C460.55,66.37,439.8,71,419,75.39c-38.56,8.19-77.06,16.68-115.74,24.26-30.74,6-61.82,10-93.27,9.32-24.06-.55-47.86-3-70.33-12.65C128.19,91.41,117.91,84.81,110,75,95.86,57.59,97.27,40,114.07,25.34c13.08-11.44,29-16.68,45.62-20.08C190.16-1,221-1,251.73,1.81c72.8,6.73,142.15,27.76,210.73,51.8,6.38,2.24,12.7,4.67,19,7Z"/><path class="cls-1" d="M491.7,73.69c-66.59,14-133.06,28.59-199.81,41.77-38,7.51-76.64,10.32-115.33,4.73-31.33-4.53-60.45-13.86-80.73-40.62l-1.46.4c3.91,14.41,7,29.09,11.87,43.19,16.24,47.42,43.18,85.78,91.8,105.09a4.84,4.84,0,0,1,2.42,3.61c.18,11.65.11,23.3.11,35.17-4.27,1.12-8.3,2.06-12.27,3.23-16.7,4.93-32.15,12.05-43.63,25.76-12.09,14.43-12.4,31.88-1,46.76a63.9,63.9,0,0,0,22.76,18.36c31.68,15.75,64.81,17.64,98.77,9.47,16.41-4,31.54-10.8,43.57-23.09,16.73-17.1,16.5-38.51-.35-55.4a78.54,78.54,0,0,0-28.57-17.89c-7-2.6-14.13-4.63-21.59-7,0-8.36,0-16.84,0-25.32,0-4.32-1.44-10,.72-12.6,2.32-2.83,8.05-3,12.37-4.06,32-7.7,62.53-18.78,88.85-39.18,12.5-9.69,24.68-19.82,36.57-30.25,35.11-30.78,70.9-60.64,111.39-84.28.33-.19.51-.64,1.24-1.59C503,71.28,497.37,72.5,491.7,73.69ZM157.39,185.34c-18.36-17.7-25.36-40-26.07-64.63,13.48,4.1,26.43,8.18,39.48,11.91,3.14.9,2.69,2.82,2.65,4.93-.33,16.16,1.9,31.95,8.2,46.86,3,7.09,7.34,13.61,11.36,20.9A79.3,79.3,0,0,1,157.39,185.34Zm24.28-49.81,25.77,4.3c-6.46,25-3.63,49.28,4.22,73.49C187.93,203,177.28,165.67,181.66,135.53Z"/></svg>