<svg id="Слой_1" data-name="Слой 1" xmlns="http://www.w3.org/2000/svg" viewBox="0 0 174.63 132.71"><defs><style>.cls-1{fill:#fff;}</style></defs><title>trofey</title><path class="cls-1" d="M165.44,71.23a14.86,14.86,0,0,0-3.19-1.6.92.92,0,0,0-.51-.13l4.49,3.19,1.86,1.6c.15.15.24.29.44.33A9.87,9.87,0,0,0,165.44,71.23Z"/><path class="cls-1" d="M155.15,60.07c-.19-.06-.24-.14-.44-.1a3,3,0,0,0,.7.51,7,7,0,0,0,3.23,1,6.21,6.21,0,0,0,.9,0c.33,0,.57,0,.89,0l.71-.07a1.8,1.8,0,0,0,.25,0,38.07,38.07,0,0,0-4.18-.86Z"/><path class="cls-1" d="M159.78,70.35a2.77,2.77,0,0,0-.88,0c.2.12.48.19.73.32s.46.17.73.31l1.47.7a12.6,12.6,0,0,1,2.51,1.8.55.55,0,0,0,.19.13A5.6,5.6,0,0,0,159.78,70.35Z"/><path class="cls-1" d="M155,61.66c-.45-.13-1.11-.47-1.53-.54a6.79,6.79,0,0,0,2.79,1.68,6.4,6.4,0,0,0,3.35.16c-.09-.06-2.49-.61-3.1-.83Z"/><path class="cls-1" d="M153.62,63.08l-.6-.22a9.62,9.62,0,0,0-1.21-.42,4.53,4.53,0,0,0,1.55,1.24,4.59,4.59,0,0,0,3.24.34,6.61,6.61,0,0,0-1.19-.37Z"/><path class="cls-1" d="M158.82,71.69a3.66,3.66,0,0,0-1.05.14c.16.2.62.29.87.38.54.2,2.57,1.2,2.57,1.2A2.65,2.65,0,0,0,158.82,71.69Z"/><path class="cls-1" d="M156,90.62c.09-.14.09-.07.05-.26C156,90.51,156,90.43,156,90.62Z"/><polygon class="cls-1" points="164.17 43.45 164.13 43.52 164.19 43.5 164.17 43.45"/><path class="cls-1" d="M15.61,34.37a14.86,14.86,0,0,0-3.56,0A9.87,9.87,0,0,0,7.75,36a.86.86,0,0,0,.54-.09l2.39-.58,5.45-.8A.92.92,0,0,0,15.61,34.37Z"/><path class="cls-1" d="M20.91,28c.28.18.49.27.78.43a6.23,6.23,0,0,0,.83.37,7,7,0,0,0,3.35.54,3,3,0,0,0,.85-.14c-.16-.12-.25-.08-.44-.11l-2.07-.48a38.06,38.06,0,0,0-4.11-1.14,1.8,1.8,0,0,0,.21.14Z"/><path class="cls-1" d="M16.68,36.43c.3,0,.52.06.79.06s.56.07.79,0a2.77,2.77,0,0,0-.79-.4,5.6,5.6,0,0,0-5.71.74.55.55,0,0,0,.23,0,12.6,12.6,0,0,1,3.06-.47Z"/><path class="cls-1" d="M24.12,30.29c-.65-.08-3-.68-3.14-.67A6.4,6.4,0,0,0,24,31a6.79,6.79,0,0,0,3.25-.23c-.4-.13-1.14-.13-1.6-.22Z"/><path class="cls-1" d="M26.28,32.46l-1.86-.3a6.62,6.62,0,0,0-1.23-.21,4.59,4.59,0,0,0,3,1.17,4.53,4.53,0,0,0,1.95-.4,9.61,9.61,0,0,0-1.27-.18Z"/><path class="cls-1" d="M18.61,38.36a3.66,3.66,0,0,0-.87-.6,2.65,2.65,0,0,0-2.9.44s2.26,0,2.83.1A2.3,2.3,0,0,0,18.61,38.36Z"/><path class="cls-1" d="M11.63,55.91c.12-.15.08-.09.07-.26C11.58,55.8,11.62,55.74,11.63,55.91Z"/><polygon class="cls-1" points="68.74 95.92 68.78 95.96 68.78 95.89 68.74 95.92"/><polygon class="cls-1" points="25.8 10.18 25.76 10.21 25.8 10.26 25.8 10.18"/><path class="cls-1" d="M22.2,84.69l-4.95,22.21,49,10.91a11.61,11.61,0,0,0,.8,3.85l.33.53a7.42,7.42,0,0,0,2.18,3.09l1.08-1a8.87,8.87,0,0,0,1.76-2.19,10.64,10.64,0,0,0,1.11-2.68l59.58,13.28,6.71-30.1a6.4,6.4,0,0,0,.64.6l.84.67a15.47,15.47,0,0,0,3.25,1.74L146,106a15.09,15.09,0,0,0,4.38.07,16.69,16.69,0,0,0,5-1.58c-.2-.11-.09,0-.37,0a2.23,2.23,0,0,1-.42,0h-1.13a9.23,9.23,0,0,1-5.79-2.15,6.18,6.18,0,0,1-2.26-3.12c0-.22,0-.21-.06-.42.2,0,1.47.16,1.86.17a13.86,13.86,0,0,0,8.29-2.44,15.26,15.26,0,0,0,3.54-3.52A14,14,0,0,0,161,89a8.91,8.91,0,0,0,.21-.89A16.47,16.47,0,0,0,160,77.94l-.59-1.14c.25-.11.31-.21.6-.34a10,10,0,0,1,5.54-.78l1.07.24a9.2,9.2,0,0,1,3.77,2.52c.26.31.56.64.81,1a.59.59,0,0,1,.15.57,7.66,7.66,0,0,1-.27,1.67c-.1.35-.4.64-.07,1.12a1.78,1.78,0,0,0,.94.61.79.79,0,0,0,1-.49,9.54,9.54,0,0,0,0-4.64c-.33-1.25-.53-1.43-.68-2a3.56,3.56,0,0,0-.34-.64,14.86,14.86,0,0,0-5-5.59,10.89,10.89,0,0,0-2-1l-.1,0-.25-.09h0l-.11,0c-.19-.06-.35-.13-.54-.18a6.75,6.75,0,0,1-1.12-.23l2.1-.92a21.94,21.94,0,0,0,3-1.9,17.77,17.77,0,0,0,4.18-4.41,14.29,14.29,0,0,0,2.43-7.77,14.14,14.14,0,0,0-.94-5.19l-.85-1.83-.3-.51a13.92,13.92,0,0,0-5.82-5.38l-.25-.1a12.12,12.12,0,0,0-13.37,2.27l3.76-16.89L41.07,0,33.38,34.53a7.82,7.82,0,0,1-1.82-4.78,4.8,4.8,0,0,1,.54-2.17c.19-.39.36-.69.56-1.07a8.26,8.26,0,0,1,1.45-2.1,9.94,9.94,0,0,0,2.39-5,10.16,10.16,0,0,0,0-2.62A12,12,0,0,0,25.12,6.43l-.26,0a13.92,13.92,0,0,0-7.63,2.15l-.5.32-1.59,1.24a14.14,14.14,0,0,0-3.2,4.2,14.29,14.29,0,0,0-1.37,8,17.77,17.77,0,0,0,1.72,5.83,21.94,21.94,0,0,0,1.84,3.07L15.59,33a6.75,6.75,0,0,1-1.1-.3c-.19,0-.36,0-.56-.08l-.11,0h0l-.26,0H13.4a10.89,10.89,0,0,0-2.2,0,14.86,14.86,0,0,0-7,2.7,3.56,3.56,0,0,0-.59.42c-.39.41-.64.49-1.51,1.45A9.54,9.54,0,0,0,0,41.31a.79.79,0,0,0,.66.89,1.78,1.78,0,0,0,1.12-.12c.51-.27.38-.67.45-1a7.66,7.66,0,0,1,.52-1.61c.12-.26.09-.28.39-.44s.79-.35,1.17-.51a8.53,8.53,0,0,1,2.27-.55,8.52,8.52,0,0,1,2.24,0l1.07.27a10,10,0,0,1,4.58,3.21c.2.25.22.37.38.58l-1,.74a16.47,16.47,0,0,0-5.7,8.48,8.9,8.9,0,0,0-.22.88,14,14,0,0,0-.17,4.57,15.26,15.26,0,0,0,1.55,4.74,13.86,13.86,0,0,0,6.28,5.95c.35.17,1.58.57,1.74.69-.17.16-.11.17-.24.35a6.18,6.18,0,0,1-3.43,1.75,9.22,9.22,0,0,1-6.14-.71l-1-.52a2.24,2.24,0,0,1-.35-.23c-.22-.18-.09-.2-.32-.19a16.69,16.69,0,0,0,3.76,3.69,15.09,15.09,0,0,0,3.94,1.93l1.55.32a25.49,25.49,0,0,0,3.77.13c1.42-.1,4.17-.75,5.63-.08M153.34,44.72a10.31,10.31,0,0,1,3.11-2.79,10,10,0,0,1,3.32-1.24,10.76,10.76,0,0,1,5.67.6l.86.38.81.42a11.06,11.06,0,0,1,2.37,1.74,14.5,14.5,0,0,1,3,4,4.23,4.23,0,0,1,.2.55,10.88,10.88,0,0,1,.44,1.16c1.86,5.89-.66,11.86-5.65,15.62a16.52,16.52,0,0,1-1.89,1.28,18.1,18.1,0,0,1-4.47,1.94,17.55,17.55,0,0,1-6.66.68c-2-.24-3.92-.94-5.88-1.34-.3-.06-.62-.11-.95-.15L148,65.8A37.07,37.07,0,0,1,152,66c1.34.14,1.74.19,3.12.23,6,.16,11.67-1.67,14.64-7.21a12.92,12.92,0,0,0,1.12-2.8,9.62,9.62,0,0,0-1.8-8.28,16.12,16.12,0,0,0-3.51-3.56,6.49,6.49,0,0,0-1.31-.8l1.2.89a14.44,14.44,0,0,1,4.9,7,9.72,9.72,0,0,1,.23,3.21,9.27,9.27,0,0,1-.28,1.42c-.09.25-.12.43-.21.69l-.43,1a12.4,12.4,0,0,1-2.28,3.42A13,13,0,0,1,163,64.27a20.2,20.2,0,0,1-6.64,1.29c-.55,0-1,0-1.52,0l-1.54-.07c-.5,0-1-.1-1.51-.14a33.86,33.86,0,0,0-3.71,0l.58-2.61a8.6,8.6,0,0,0,3.77-4.45l.28-1.06c0-.15,0-.24.13-.35a8.54,8.54,0,0,0,3.95,2.37l.74.17c4.75,1,9.81-3.26,9-8.32a7.28,7.28,0,0,0-.58-1.78,6.87,6.87,0,0,0-2.27-2.57c-3.65-2.48-8.45,0-8.6,3.95A4.91,4.91,0,0,0,156.37,54a4.27,4.27,0,0,0,2.7,1.39,4.58,4.58,0,0,0,1.67-.17,4.4,4.4,0,0,0,1.61-1c1.49-1.53,1-4.3-.77-4.79-.23-.06-.6-.12-.81.12s1.19,1.73.18,3a1.9,1.9,0,0,1-2.71.32c-3.07-2.41,1.15-7.22,4.85-4.18a4.63,4.63,0,0,1,1.25,5.65,5.88,5.88,0,0,1-1.08,1.57,6.18,6.18,0,0,1-5.89,1.77,7.43,7.43,0,0,1-3.31-1.82,8.42,8.42,0,0,1-1.36-1.65,7.4,7.4,0,0,1-1.19-4.24l.71-3.17A12,12,0,0,1,153.34,44.72ZM150.6,54c0,.22,0,.49,0,.91s0,.78,0,1.21a4.8,4.8,0,0,1-.51,2.18,5.71,5.71,0,0,1-.75,1.15ZM14.14,30A16.54,16.54,0,0,1,13,28C10.29,22.42,10.77,16,15.1,11.56a10.87,10.87,0,0,1,.93-.83c.21-.17.2-.25.42-.4A14.5,14.5,0,0,1,20.9,8.1a11.06,11.06,0,0,1,2.9-.47h.91l.94.05a10.76,10.76,0,0,1,5.33,2,10,10,0,0,1,2.39,2.61,10.31,10.31,0,0,1,1.5,3.9A11.08,11.08,0,0,1,34.93,19a7.82,7.82,0,0,1-3.78,5.89,8.42,8.42,0,0,1-2,.85,7.43,7.43,0,0,1-3.77.12A6.18,6.18,0,0,1,21,21.65a5.88,5.88,0,0,1-.24-1.89,4.63,4.63,0,0,1,3.68-4.47c4.68-1,6.25,5.18,2.42,5.93a1.9,1.9,0,0,1-2.27-1.52c-.33-1.59,1.48-2.21,1.52-2.58s-.43-.43-.66-.48c-1.81-.38-3.5,1.87-2.86,3.91a4.4,4.4,0,0,0,1,1.66,4.58,4.58,0,0,0,1.41.91,4.27,4.27,0,0,0,3,0,4.91,4.91,0,0,0,2.64-2.4c1.67-3.61-1.49-8-5.87-7.43a6.87,6.87,0,0,0-3.19,1.26,7.27,7.27,0,0,0-1.33,1.32c-3,4.15-.43,10.26,4.26,11.51l.74.19a8.55,8.55,0,0,0,4.59-.31c.07.17,0,.23,0,.37l-.23,1.07C29.12,32,30.71,34.65,32.84,37l-.32,1.44a33.31,33.31,0,0,0-5.65-3.05c-.48-.2-1-.35-1.41-.57l-1.4-.64c-.48-.23-.87-.44-1.36-.7a20.2,20.2,0,0,1-5.33-4.17,13,13,0,0,1-2.53-4.75,12.4,12.4,0,0,1-.47-4.08l.07-1.09c0-.27.09-.44.12-.71A9.28,9.28,0,0,1,15,17.23a9.72,9.72,0,0,1,1.66-2.76,14.44,14.44,0,0,1,7.54-4l1.47-.25a6.49,6.49,0,0,0-1.53.11,16.12,16.12,0,0,0-4.75,1.57A9.62,9.62,0,0,0,14,18.48a12.93,12.93,0,0,0-.27,3c.12,6.29,4.35,10.51,9.76,13.08,1.25.6,1.63.73,2.89,1.21a34.36,34.36,0,0,1,4.27,2c.45.26,1,.52,1.42.8l.37.24-.32,1.44a22.43,22.43,0,0,0-3.4-1.32c-1.93-.54-4-.79-5.85-1.48a17.55,17.55,0,0,1-5.62-3.63A18.1,18.1,0,0,1,14.14,30Zm-.27,10.21a8.11,8.11,0,0,0-3.55-2.61,7.84,7.84,0,0,0-7,.85l.42-.67a13.85,13.85,0,0,1,8-4.72,8.6,8.6,0,0,1,3.94.06c.21.07.14.06.31.24a18.48,18.48,0,0,0,5.9,4.18,22.7,22.7,0,0,0,2.74.85l2.07.44.7.15.7.16a11.72,11.72,0,0,1,2.08.65c.22.1.42.16.65.25.41.16.82.33,1.23.51l-.08.34a21.9,21.9,0,0,0-2.76-1.05,16.54,16.54,0,0,0-6.94-.61c-.28,0-.5.09-.77.12a13.54,13.54,0,0,0-3.22.89c-.57.23-1.08.45-1.65.74-.26.13-.58.3-.81.44s-.57.38-.82.49A13,13,0,0,0,13.86,40.24ZM9.44,58A13.13,13.13,0,0,1,10,49.9a14.29,14.29,0,0,1,1.8-3.16,16,16,0,0,1,8.74-6A14.43,14.43,0,0,1,24,40.26a13.27,13.27,0,0,1,2,0l.67.08c.25,0,.38.09.63.12l.67.13A19.66,19.66,0,0,1,31.72,42l-.55,2.49a13.6,13.6,0,0,0-4.64-1.41L24.22,43c-.41,0-.75.06-1.15.11-4.71.57-7.94,4-9.91,8.12A19.73,19.73,0,0,0,12.09,54l-.31,1.1a1.53,1.53,0,0,0-.08.56l.76-2.15a22.55,22.55,0,0,1,2.23-4.17,12.2,12.2,0,0,1,8.53-5.53,14.09,14.09,0,0,1,6.55.76,13.19,13.19,0,0,1,1.26.58l-1.1,5a3.77,3.77,0,0,0-2.13-.28.9.9,0,0,0-.32.11.8.8,0,0,0-.14.09l-.1.06a8.23,8.23,0,0,0-5-1.23,7.87,7.87,0,0,0-6,3.93,4.22,4.22,0,0,0-.3.61,7.86,7.86,0,0,0-.5,1.87,5.05,5.05,0,0,0-.07.64,6.6,6.6,0,0,0,3,5.52A7.3,7.3,0,0,0,19.6,62a5.33,5.33,0,0,0,6.81-3.29,4.13,4.13,0,0,0,.09-2.53,4.06,4.06,0,0,0-.59-1.36,3.93,3.93,0,0,0-2.34-1.67,3,3,0,0,0-2.58.3,2.56,2.56,0,0,0-1.29,1.7.48.48,0,0,0,.22.56c1.06-.49,1.56-1.2,2.83-.8a2.88,2.88,0,0,1,.64.33A2.65,2.65,0,0,1,23,59.74a3.16,3.16,0,0,1-2.73.3,3.79,3.79,0,0,1-2.36-2c-2-3.69,1.92-8.1,6.26-7.18a7.24,7.24,0,0,1,4.72,3.68l-2.23,10a9.5,9.5,0,0,1-8.91,2A12.27,12.27,0,0,1,9.44,58ZM22.33,72.33c-.24.51-.14.7-.37.84a5.34,5.34,0,0,1-.92.32,15.73,15.73,0,0,1-5.47.34,11.49,11.49,0,0,1-1.75-.31A16.79,16.79,0,0,1,8.74,71c-.27-.18-.55-.4-.83-.63a6.67,6.67,0,0,1-.79-.68l3,1.48c2.9.88,8.24.36,9.25-2.69l.83.06c.3,0,.55,0,.84,0a11.84,11.84,0,0,0,3.43-.73A13.85,13.85,0,0,0,26.15,67l-.43,1.93A9,9,0,0,0,22.33,72.33Zm1.72,1a4,4,0,0,1,1.12-2l-.33,1.47A5.72,5.72,0,0,0,24,73.37Zm36.65,9.4c-4,1.62-6.23,4.09-7.39,4.72L52,86.56c1.23-1.66,6.07-4.75,8-5.63a53.2,53.2,0,0,1,9.28-3.35C66.58,77.31,61.41,78.82,59,80c-4.48,2.07-7.83,5.43-8.36,5.67l-.5-.39c.3-1.15,5.3-5,6.52-5.63a27.84,27.84,0,0,1,8.31-3c16.42-2.93,30.63,5.27,44.16,6.78,2.74.31,7.05.4,9-1.88s.92-6.89-.37-9.19c-.05.91,1.2,3.44.23,5.67-2.11,4.89-14.33.42-18-.6a51.44,51.44,0,0,1,3.33-6.8c.41-.74,2.24-4.15,2.94-4.51,1.16-.6.56-.12,1.28-1.2,1-1.48,6,2.15,12.36-4.84,3.53-3.87,5.4-9.36,6-14.49.37-3.28.5-12.11-3.6-13.23-3.86-1.05-9.33,2.88-12.17,5.16A26.54,26.54,0,0,0,101.84,49c-3.06,9.23,2.62,12.16,1.91,13.88-.6,1.44-.14.86-.29,1.95a39.13,39.13,0,0,1-2.55,5.32c-.72,1.31-3,5.5-3.86,6.33a101.1,101.1,0,0,0-17.69-3.72c-1.62-.18-4-.11-5.44-.36L74,71.08a14.35,14.35,0,0,1,.64-3.37c.86-.35.44-1.47.87-2,1-1.26,4.38-.49,4.64-4.7.2-3.11,0-7-.08-10.14,0-3.4-.07-6.77,0-10.14l.1-7.65c.05-1.67.28-2.12-.34-2.36-.38.45-1.11,11.12-1.17,12.55-.11,2.85-.7,7.85-.95,11.2-.06.73.1,1-.47,1.41-.48-.49-.19-2.26-.19-3l0-20.89c0-.67.19-1.23-.34-1.51-.62.58-.69,5.09-.79,6.22-.25,2.79-1.44,18.45-1.92,18.93-.55-.22-.37-.68-.35-1.34l.68-20.86c0-.71.31-2.72-.2-3.11-.64.42-.55,2.27-.65,3.06L71,52.45c-.09.7,0,2.62-.65,2.94-.56-.36-.17-2.29-.15-3,0-1.07.11-2.14.12-3.21.05-3.78.37-8.9.53-12.85,0-1.07.09-2.14.13-3.2,0-.66.42-2.75-.19-3-.52.37-.63,3.84-.72,4.68-.17,1.64-.37,3.28-.56,4.92-.39,3.32-.84,6.64-1.28,10s-1,6.69-1.33,10c-.58,5.66,4.34,3.85,4.11,6.62,0,.73.07.67.44,1.21s.19.69.2,1.31a12.57,12.57,0,0,0,.09,2.82l-.16.82c-2.08.43-3.63.1-7.49,1.11a29.67,29.67,0,0,0-12.54,6.55l0,0c-8.06-17.8-13.18-41.29-5.6-66.57C77.84,10,119.29,20,145.08,37.41a100,100,0,0,1-38.35,60.8,67.25,67.25,0,0,1,6.64-11c.57-.77,1.52-1.86,2-2.63-2,1-6.46,6.23-7.92,8.28-1.22,1.71-2.25,3.39-3.3,5.2-.53.92-2.84,5.83-2.84,5.83L99.72,103s-3.11-2-4.76-2.87a43.45,43.45,0,0,0-7.16-3c-4.18-1.31-11-2.26-15.28-1.21-.74.09-1.49.3-2.22.37s-1.2.4-2,.55c-1.65.38-3.19,1.26-4.69,1.7l-.59-.8a15.8,15.8,0,0,1,5.5-2.49,9.81,9.81,0,0,0,2-.58A12.43,12.43,0,0,0,62,96.31a5.52,5.52,0,0,1-.83-1.18,21.25,21.25,0,0,1,4.28-2.34c1.14-.47,4.19-1.21,4.82-1.57a14.69,14.69,0,0,0-5.6.47,14.05,14.05,0,0,0-2.33.94c-.58.3-1.85,1.14-2.26,1.3a5.64,5.64,0,0,1-.9-1.09C62,90.38,65.93,89,69.49,88l.75-.27a17.3,17.3,0,0,0-6.7.94,19.72,19.72,0,0,0-5.43,3l-1.09-1c1.64-2,6.67-4.3,9.35-5.2.6-.2,1.19-.39,1.79-.56l.85-.25,1-.33a20.73,20.73,0,0,0-7.8,1.38,24.1,24.1,0,0,0-6.24,3.84,6,6,0,0,1-1.3-1c.7-1.35,5.49-4,7-4.72,1.27-.59,7.13-2.9,8.08-2.83C68,80.52,62.45,82.05,60.69,82.77Zm11.2-19c-4.21-.17.43-.14,3.67-2.44a6.73,6.73,0,0,0,2.13-2.89C79,55.24,79.14,50.08,79.2,51,79.76,59.38,81,64.13,71.9,63.76ZM118,38.69c-.68-2.52-1.17-1.88-1.78-2.44a14.86,14.86,0,0,1,4.13-1.58c2-.31,2.34,1.25,2.73,2.92,1.47,6.24-.37,14.89-4.53,20.07-1.33,1.65-5.12,4.88-7.37,4.33,0-.08,1.91-1.81,2.21-2.16a20.19,20.19,0,0,0,2-2.81C118.29,52,119.53,44.36,118,38.69ZM82.81,111.3l-.24.29-.2.2-.18.18a2.74,2.74,0,0,1-.4.29l-.9.51-.26.14-.53.27-.27.13-.41.19-.24.11-.33.13-.2.07-.27.08-.15,0-.29,0-.12,0-.08,0a.22.22,0,0,1-.08-.06l0,0a.25.25,0,0,1,0-.11.4.4,0,0,1,0,0,.66.66,0,0,1,0-.16v0A6.34,6.34,0,0,1,79,111.77h0c.43-.44,1-.94,1.57-1.48,2.08-1.82,4.75-6.39,6-8.84l-.18-.14c.17.15.31.25.44.34-.56,2.19-1.93,6.64-3.57,9.1l-.26.37ZM74.5,98.38a13.17,13.17,0,0,1,2.44-.27l3.91.24,2.68.44a6.21,6.21,0,0,1-1.34,1.76c-.62,1-1.67,2.18-2.4,3.21-1.94,2.73-3.24,5.42-3.2,8.42a21.66,21.66,0,0,1-2.18.18c-.2-.14-.43-.3-.65-.47C73.32,108.23,72.58,104.6,74.5,98.38Zm13.31,3.43h0Zm-.14,0h0Zm-.17.06h0Zm-.11,0h0Zm-.15,0-.06,0Zm.76,0c.37-.29.16-.14.37-.73a7.7,7.7,0,0,1,.32-.79l1.4.5a37.13,37.13,0,0,1,6.73,3.82h0a74.26,74.26,0,0,1-12,5.48C86.06,107.75,87.89,103.37,88,101.85ZM68.16,99.58a16.92,16.92,0,0,1-.09,6.74c-1.35-1.53-2.79-3.31-4.28-5.3C65.28,100.41,67.39,99.46,68.16,99.58Zm3.65,21.14A24.59,24.59,0,0,1,70,123c-1.17,1.28-1.62,1.17-1.44.06a16.63,16.63,0,0,1,1.28-3.62,11.48,11.48,0,0,0,.56-1.62l0-.11a40.45,40.45,0,0,0,1-6.43v-.17c.12-1.43.18-2.65.17-3.34a11.74,11.74,0,0,1,.54,2.8h0c.06.42.12.88.17,1.35V112c.05.48.1,1,.15,1.48h0a30.13,30.13,0,0,1,.1,3.74c0,.36,0,.71-.08,1h0c0,.33-.09.65-.15.95A4.19,4.19,0,0,1,71.81,120.72Zm59.73,9.6L73.85,117.47a18.29,18.29,0,0,0,.12-3.11h.17a25.29,25.29,0,0,0,2.67-.2,12,12,0,0,0,.5,1.73c1.89,0,4-1.43,5.52-3A71,71,0,0,0,98.57,106c1.62,1.33,3.73,3.08,3.87,3.13.93-2.18,1.6-4.81,2.57-7.13l0-.09a99.89,99.89,0,0,0,8.53-6.62,102.62,102.62,0,0,0,33.59-58.18l.13-.65-.54-.37C120.06,17.82,78.23,7.76,45,11.67l-.65.08-.19.62c-6.53,21.23-4,40.86.69,55.94h0a112.8,112.8,0,0,0,4.19,11.29c.29.68.6,1.33.91,2a18.49,18.49,0,0,0-3.3,4.07c.32.39,7,5.66,8.79,7.39.37.36.82.8,1.3,1.29a94.53,94.53,0,0,0,10.77,14.46,50.22,50.22,0,0,0-1.3,7L19.64,105.39l23-103,111.9,24.93Zm17.24-46.15a3,3,0,0,0-2.16-1.44,3.75,3.75,0,0,0-2.49.27l.61-2.76a6.49,6.49,0,0,1,2.35.17c4.28,1.15,5.81,6.88,2.31,9.24a3.79,3.79,0,0,1-3,.7,3.16,3.16,0,0,1-2.29-1.51,2.65,2.65,0,0,1,1.72-4.17,2.87,2.87,0,0,1,.72,0c1.31.23,1.44,1.08,2.16,2,.3-.06.35-.14.45-.4A2.56,2.56,0,0,0,148.78,84.18Zm1.6,20.71,3.38.07a6.67,6.67,0,0,1-1,.25c-.36.07-.71.14-1,.18a16.79,16.79,0,0,1-5.67-.07,11.49,11.49,0,0,1-1.7-.52,16.05,16.05,0,0,1-4.5-2.6L141,97a9.34,9.34,0,0,0,.85.55c.25.14.48.25.74.39l.76.32C142.87,101.46,147.39,104.35,150.37,104.88ZM160,82.39a14.29,14.29,0,0,1,.17,3.63A13.13,13.13,0,0,1,157,93.44a12.27,12.27,0,0,1-11.36,3.89,9.48,9.48,0,0,1-4.27-2.08l1.12-5c.08.11.15.23.24.34a5.25,5.25,0,0,0,3.37,1.85,7.3,7.3,0,0,0,1.35,0,6.6,6.6,0,0,0,5.19-3.55,5,5,0,0,0,.23-.6,7.86,7.86,0,0,0,.41-1.9,4.22,4.22,0,0,0,0-.68,7.87,7.87,0,0,0-3.56-6.23,7.5,7.5,0,0,0-4.58-1.17l1.29-5.8a14.38,14.38,0,0,1,4.73,2,12.2,12.2,0,0,1,5.08,8.8,22.55,22.55,0,0,1,.09,4.72l-.3,2.26a1.53,1.53,0,0,0,.18-.54l.22-1.12a19.72,19.72,0,0,0,.3-2.94c.13-4.57-1.2-9.09-5.13-11.73-.33-.22-.62-.42-1-.62l-2.09-1a15.29,15.29,0,0,0-2-.55l.56-2.5c.42.07.84.15,1.26.25l.65.18c.24.09.38.1.61.18l.64.23a13.28,13.28,0,0,1,1.81.87,14.43,14.43,0,0,1,2.83,2A16,16,0,0,1,160,82.39ZM165.49,75a8.11,8.11,0,0,0-4.35.71,13.05,13.05,0,0,0-1.77,1c-.17-.22-.34-.54-.51-.81s-.35-.53-.52-.76c-.37-.51-.73-.94-1.13-1.4a13.54,13.54,0,0,0-2.46-2.26c-.23-.15-.4-.3-.63-.46a16.54,16.54,0,0,0-6.46-2.61l-.24,0,.08-.35a14.36,14.36,0,0,1,1.49.29l.7.18.69.19,2,.55a22.7,22.7,0,0,0,2.83.48,18.48,18.48,0,0,0,7.15-1c.24-.08.17-.1.39-.07a8.6,8.6,0,0,1,3.54,1.73,13.85,13.85,0,0,1,5,7.83l.07.79A7.84,7.84,0,0,0,165.49,75Z"/></svg>